<svg xmlns="http://www.w3.org/2000/svg" version="1.1" width="1724px" height="1704px" style="shape-rendering:geometricPrecision; text-rendering:geometricPrecision; image-rendering:optimizeQuality; fill-rule:evenodd; clip-rule:evenodd" xmlns:xlink="http://www.w3.org/1999/xlink">
<g><path style="opacity:0.996" fill="#332c2b" d="M 854.5,-0.5 C 854.833,-0.5 855.167,-0.5 855.5,-0.5C 871.585,22.0317 891.585,40.1984 915.5,54C 942.426,69.7961 970.426,83.4627 999.5,95C 1053.28,115.056 1106.94,135.389 1160.5,156C 1186.67,167.085 1212,179.752 1236.5,194C 1255.81,205.973 1272.64,220.806 1287,238.5C 1299.88,255.635 1306.71,274.969 1307.5,296.5C 1328.24,293.423 1348.58,295.257 1368.5,302C 1391.54,311.015 1412.54,323.348 1431.5,339C 1441.13,346.962 1450.46,355.296 1459.5,364C 1470.67,375.833 1481.83,387.667 1493,399.5C 1525.76,438.253 1557.76,477.587 1589,517.5C 1609.69,542.866 1631.86,567.033 1655.5,590C 1675.19,608.838 1697.85,623.005 1723.5,632.5C 1723.5,633.167 1723.5,633.833 1723.5,634.5C 1706.54,653.42 1695.04,675.42 1689,700.5C 1682.51,727.123 1678.51,754.123 1677,781.5C 1674.64,838.537 1671.64,895.537 1668,952.5C 1664.91,994.96 1655.58,1035.96 1640,1075.5C 1628.04,1103.61 1610.54,1127.61 1587.5,1147.5C 1596.61,1173.58 1598.77,1200.25 1594,1227.5C 1590.11,1249.08 1583.44,1269.75 1574,1289.5C 1559.02,1319.49 1542.02,1348.15 1523,1375.5C 1502.09,1404.32 1481.42,1433.32 1461,1462.5C 1435.76,1498.29 1414.1,1536.29 1396,1576.5C 1389.93,1591.87 1384.77,1607.54 1380.5,1623.5C 1342.18,1617.59 1303.85,1618.42 1265.5,1626C 1244.22,1630.24 1223.22,1635.57 1202.5,1642C 1153.78,1658.86 1104.78,1674.86 1055.5,1690C 1028.82,1697.34 1001.82,1701.84 974.5,1703.5C 969.833,1703.5 965.167,1703.5 960.5,1703.5C 921.418,1701.92 886.084,1689.58 854.5,1666.5C 832.085,1688.87 805.085,1701.21 773.5,1703.5C 760.833,1703.5 748.167,1703.5 735.5,1703.5C 708.968,1700.56 682.635,1695.73 656.5,1689C 604.122,1674.16 551.788,1659.16 499.5,1644C 458.626,1632.3 416.959,1625.8 374.5,1624.5C 356.344,1624.58 338.344,1626.25 320.5,1629.5C 320.89,1607.28 316.723,1585.95 308,1565.5C 296.73,1539.62 283.397,1514.95 268,1491.5C 232.258,1440.35 197.258,1388.69 163,1336.5C 145.791,1308.75 131.791,1279.41 121,1248.5C 111.89,1220.96 109.89,1192.96 115,1164.5C 116.702,1156.73 119.202,1149.23 122.5,1142C 113.733,1133.23 104.9,1124.4 96,1115.5C 73.7712,1087.19 59.4379,1055.19 53,1019.5C 48.9451,998.006 46.2784,976.339 45,954.5C 43.1055,907.509 41.4388,860.509 40,813.5C 38.4778,757.892 28.4778,703.892 10,651.5C 6.96168,643.521 3.46168,635.854 -0.5,628.5C -0.5,627.833 -0.5,627.167 -0.5,626.5C 37.5287,604.666 71.6954,577.666 102,545.5C 114,532.167 126,518.833 138,505.5C 167.623,468.875 197.623,432.542 228,396.5C 254.117,366.04 283.617,339.54 316.5,317C 342.433,300.3 370.766,290.467 401.5,287.5C 406.455,267.588 415.622,249.921 429,234.5C 452.375,209.728 479.541,190.228 510.5,176C 521.833,171 533.167,166 544.5,161C 595.273,142.409 646.273,124.409 697.5,107C 735.017,93.9076 770.35,76.5742 803.5,55C 824.923,40.4169 841.923,21.9169 854.5,-0.5 Z"/></g>
<g><path style="opacity:1" fill="#fcfcfc" d="M 855.5,30.5 C 884.512,57.1982 917.179,78.6982 953.5,95C 969.717,102.275 986.051,109.275 1002.5,116C 1052.99,134.607 1103.32,153.607 1153.5,173C 1182.49,184.992 1210.15,199.325 1236.5,216C 1254.43,227.925 1268.93,243.091 1280,261.5C 1289.19,279.823 1292.02,299.157 1288.5,319.5C 1319.37,309.785 1349.37,311.952 1378.5,326C 1403.16,339.501 1425.49,356.167 1445.5,376C 1457,388.167 1468.5,400.333 1480,412.5C 1510.81,449.467 1541.15,486.8 1571,524.5C 1595.69,555.192 1622.52,584.025 1651.5,611C 1665.02,622.195 1679.36,632.195 1694.5,641C 1677.97,668.943 1667.8,699.11 1664,731.5C 1661.62,746.418 1659.95,761.418 1659,776.5C 1656.18,821.129 1654.18,865.796 1653,910.5C 1651.43,948.97 1646.43,986.97 1638,1024.5C 1629.9,1058.7 1614.9,1089.37 1593,1116.5C 1584.27,1125.43 1575.1,1133.76 1565.5,1141.5C 1577.1,1165.98 1580.94,1191.65 1577,1218.5C 1573.15,1240.71 1566.49,1262.04 1557,1282.5C 1543.26,1309.54 1527.93,1335.54 1511,1360.5C 1489.67,1390.5 1468.33,1420.5 1447,1450.5C 1422.29,1485.9 1400.62,1523.23 1382,1562.5C 1376.07,1575.8 1371.23,1589.46 1367.5,1603.5C 1328.47,1599.25 1289.81,1601.41 1251.5,1610C 1229.25,1615.06 1207.25,1621.06 1185.5,1628C 1141.34,1643.27 1097.01,1657.94 1052.5,1672C 1024.18,1679.8 995.346,1683.97 966,1684.5C 933.242,1685.1 903.075,1676.6 875.5,1659C 867.656,1653.15 859.823,1647.32 852,1641.5C 845.6,1648.9 838.766,1656.07 831.5,1663C 815.751,1674.7 798.084,1681.7 778.5,1684C 751.957,1686.8 725.624,1685.46 699.5,1680C 684.718,1677.18 670.051,1673.84 655.5,1670C 608.371,1656.73 561.371,1643.07 514.5,1629C 479.648,1619.56 444.315,1612.56 408.5,1608C 384.8,1605.86 361.134,1606.03 337.5,1608.5C 336.161,1591.15 331.995,1574.48 325,1558.5C 313.397,1531.95 299.73,1506.62 284,1482.5C 261.39,1448.89 238.39,1415.56 215,1382.5C 191.614,1349.07 170.614,1314.07 152,1277.5C 141.771,1255.48 134.771,1232.48 131,1208.5C 127.475,1182.27 132.642,1157.94 146.5,1135.5C 107.327,1108.87 82.8267,1072.2 73,1025.5C 67.8229,1001.43 64.4896,977.101 63,952.5C 61.4052,908.844 60.0718,865.177 59,821.5C 57.4639,773.748 50.7973,726.748 39,680.5C 34.5868,664.759 29.0868,649.426 22.5,634.5C 56.0519,613.47 86.5519,588.47 114,559.5C 126.333,545.833 138.667,532.167 151,518.5C 180.623,481.875 210.623,445.542 241,409.5C 266.075,380.417 294.242,354.917 325.5,333C 352.868,315.266 382.868,305.433 415.5,303.5C 422.025,272.947 437.358,247.78 461.5,228C 488.166,207.826 517.166,191.492 548.5,179C 600.864,159.545 653.531,140.878 706.5,123C 745.18,109.493 781.513,91.4931 815.5,69C 830.96,58.3736 844.293,45.5402 855.5,30.5 Z"/></g>
<g><path style="opacity:1" fill="#352e2c" d="M 854.5,62.5 C 860.437,68.3156 865.937,74.649 871,81.5C 888.488,97.6606 907.655,111.494 928.5,123C 947.578,132.58 966.912,141.58 986.5,150C 1038.28,169.389 1089.94,189.056 1141.5,209C 1177.35,222.911 1210.02,241.911 1239.5,266C 1258.14,282.433 1269.64,302.933 1274,327.5C 1274.5,330.817 1274.67,334.15 1274.5,337.5C 1304.14,333.886 1331.81,339.719 1357.5,355C 1374.3,365.126 1389.96,376.792 1404.5,390C 1418.36,403.529 1431.86,417.362 1445,431.5C 1486,481.167 1527,530.833 1568,580.5C 1583.97,597.805 1601.13,613.639 1619.5,628C 1632.01,637.255 1645.67,644.422 1660.5,649.5C 1639.81,673.676 1627.31,701.676 1623,733.5C 1620.26,749.071 1618.26,764.737 1617,780.5C 1614.59,837.534 1611.59,894.534 1608,951.5C 1604.58,987.28 1596.58,1021.95 1584,1055.5C 1572.4,1082.74 1555.9,1106.41 1534.5,1126.5C 1543.82,1154.12 1544.98,1182.12 1538,1210.5C 1528.19,1245.63 1513.19,1278.3 1493,1308.5C 1465.06,1349.44 1436.72,1390.11 1408,1430.5C 1389.04,1458.74 1372.37,1488.41 1358,1519.5C 1351.32,1535.04 1346.15,1551.04 1342.5,1567.5C 1305.02,1561.44 1267.68,1562.28 1230.5,1570C 1210.26,1574.39 1190.26,1579.73 1170.5,1586C 1128.35,1600.6 1086.02,1614.6 1043.5,1628C 1025.63,1632.31 1007.63,1635.97 989.5,1639C 940.077,1646.36 895.244,1635.53 855,1606.5C 833.626,1627.64 807.793,1639.14 777.5,1641C 743.282,1641.75 709.615,1637.75 676.5,1629C 627.642,1615.62 578.975,1601.62 530.5,1587C 489.959,1575.41 448.625,1568.91 406.5,1567.5C 391,1567.72 375.666,1569.38 360.5,1572.5C 360.725,1549.4 355.892,1527.4 346,1506.5C 335.601,1484.69 323.935,1463.69 311,1443.5C 290.247,1412.99 269.247,1382.66 248,1352.5C 224.896,1319.98 204.562,1285.65 187,1249.5C 172.062,1218.48 165.728,1185.81 168,1151.5C 169.357,1140.43 172.523,1129.93 177.5,1120C 148.171,1096.64 128.338,1066.8 118,1030.5C 111.937,1007.52 107.937,984.187 106,960.5C 103.376,914.871 101.709,869.204 101,823.5C 99.9967,771.812 91.33,721.479 75,672.5C 71.4124,662.734 67.2458,653.234 62.5,644C 86.9326,630.117 109.599,613.784 130.5,595C 154.13,572.708 176.297,549.208 197,524.5C 223.289,491.875 249.956,459.542 277,427.5C 299.829,400.72 325.663,377.553 354.5,358C 378.802,341.789 405.468,332.122 434.5,329C 444.712,297.452 463.379,272.119 490.5,253C 513.848,236.822 538.848,223.489 565.5,213C 617.606,193.742 669.939,175.076 722.5,157C 751.011,146.578 778.011,133.244 803.5,117C 825.214,103.123 842.214,84.9563 854.5,62.5 Z"/></g>
<g><path style="opacity:1" fill="#fef99d" d="M 855.5,92.5 C 878.623,113.421 904.289,130.921 932.5,145C 953.599,154.883 974.933,164.217 996.5,173C 1045.83,190.834 1094.83,209.5 1143.5,229C 1167.38,239.271 1190.05,251.605 1211.5,266C 1227.86,277.023 1240.69,291.19 1250,308.5C 1253.54,315.793 1255.88,323.46 1257,331.5C 1257.26,341.176 1257.26,350.843 1257,360.5C 1280.07,351.355 1303.24,351.188 1326.5,360C 1351.16,370.326 1373.16,384.66 1392.5,403C 1406.03,416.195 1419.2,429.695 1432,443.5C 1473,493.167 1514,542.833 1555,592.5C 1572.34,611.512 1591.17,628.679 1611.5,644C 1618.33,648.584 1625.33,652.917 1632.5,657C 1617.25,682.421 1607.75,709.921 1604,739.5C 1597.93,794.326 1594.59,849.326 1594,904.5C 1592.68,943.428 1587.34,981.761 1578,1019.5C 1569.99,1049.46 1555.99,1076.12 1536,1099.5C 1528.46,1106.71 1520.63,1113.54 1512.5,1120C 1524.71,1145.69 1527.88,1172.53 1522,1200.5C 1513.79,1234.25 1500.12,1265.58 1481,1294.5C 1455.78,1332.39 1429.78,1369.72 1403,1406.5C 1380.54,1438.39 1360.88,1472.06 1344,1507.5C 1338.27,1520.52 1333.44,1533.86 1329.5,1547.5C 1291.39,1543.3 1253.73,1545.8 1216.5,1555C 1198.34,1559.37 1180.34,1564.37 1162.5,1570C 1121.35,1584.27 1080.02,1597.94 1038.5,1611C 1005.5,1620.67 971.833,1624.33 937.5,1622C 905.037,1617.43 876.703,1604.26 852.5,1582.5C 829.165,1612.47 798.331,1626.13 760,1623.5C 736.139,1623.11 712.639,1619.94 689.5,1614C 637.937,1600.15 586.604,1585.48 535.5,1570C 501.048,1560.7 466.048,1554.36 430.5,1551C 412.49,1550.34 394.49,1550.5 376.5,1551.5C 374.817,1534.1 370.317,1517.44 363,1501.5C 350.788,1475.4 336.788,1450.4 321,1426.5C 291.276,1383.77 261.942,1340.77 233,1297.5C 215.538,1270.24 201.538,1241.24 191,1210.5C 185.998,1192.82 183.998,1174.82 185,1156.5C 187.055,1141.67 191.888,1127.83 199.5,1115C 192.56,1109.41 185.56,1103.74 178.5,1098C 154.849,1074.88 139.349,1047.04 132,1014.5C 126.33,988.804 122.997,962.804 122,936.5C 120.978,889.477 119.311,842.477 117,795.5C 114.105,745.783 103.605,697.783 85.5,651.5C 102.509,640.32 118.842,628.153 134.5,615C 150.305,600.196 165.805,585.029 181,569.5C 217.71,526.459 254.043,483.126 290,439.5C 313.361,412.945 339.528,389.778 368.5,370C 393.339,354.664 420.339,346.498 449.5,345.5C 454.232,318.535 466.899,296.035 487.5,278C 508.334,260.736 531.334,246.736 556.5,236C 566.086,231.805 575.752,227.805 585.5,224C 627.35,208.939 669.35,194.272 711.5,180C 749.464,167.183 785.131,149.85 818.5,128C 825.5,122.333 832.5,116.667 839.5,111C 845.676,105.424 851.009,99.2572 855.5,92.5 Z"/></g>
<g><path style="opacity:1" fill="#362f2d" d="M 885.5,267.5 C 884.549,268.919 884.216,270.585 884.5,272.5C 887.167,272.5 889.833,272.5 892.5,272.5C 899.809,273.248 907.142,273.582 914.5,273.5C 914.5,277.833 914.5,282.167 914.5,286.5C 904.139,286.22 893.805,285.553 883.5,284.5C 883.5,288.833 883.5,293.167 883.5,297.5C 893.169,297.789 902.835,298.122 912.5,298.5C 913.209,299.404 914.209,299.737 915.5,299.5C 915.5,302.167 915.5,304.833 915.5,307.5C 915.5,309.5 915.5,311.5 915.5,313.5C 897.827,312.214 880.16,310.88 862.5,309.5C 864.029,288.849 865.362,268.182 866.5,247.5C 883.834,248.5 901.168,249.5 918.5,250.5C 918.533,254.869 918.2,259.202 917.5,263.5C 906.825,263.377 896.159,263.043 885.5,262.5C 885.5,264.167 885.5,265.833 885.5,267.5 Z"/></g>
<g><path style="opacity:1" fill="#352e2c" d="M 819.5,280.5 C 819.5,279.167 819.5,277.833 819.5,276.5C 820.791,276.737 821.791,276.404 822.5,275.5C 831.487,274.893 840.487,274.56 849.5,274.5C 849.344,281.69 849.678,288.856 850.5,296C 850.919,298.981 849.919,301.314 847.5,303C 834.064,312.086 819.397,314.753 803.5,311C 793.429,306.371 787.596,298.538 786,287.5C 782.614,268.084 790.114,255.251 808.5,249C 816.167,248.333 823.833,248.333 831.5,249C 838.544,251.21 843.544,255.71 846.5,262.5C 846.291,263.086 845.957,263.586 845.5,264C 839.906,265.273 834.406,266.773 829,268.5C 824.283,261.204 818.116,259.704 810.5,264C 807.894,265.938 806.061,268.438 805,271.5C 803.913,279.13 804.913,286.463 808,293.5C 815.541,301.063 823.541,301.396 832,294.5C 832.495,292.527 832.662,290.527 832.5,288.5C 828.167,288.5 823.833,288.5 819.5,288.5C 819.5,285.833 819.5,283.167 819.5,280.5 Z"/></g>
<g><path style="opacity:1" fill="#352e2c" d="M 935.5,252.5 C 949.206,254.341 962.873,256.507 976.5,259C 988.142,262.896 991.975,270.729 988,282.5C 984.97,289.109 979.803,292.942 972.5,294C 976.65,296.776 979.484,300.609 981,305.5C 983.143,311.428 984.977,317.428 986.5,323.5C 979.339,323.195 972.339,322.029 965.5,320C 962.672,312.183 959.838,304.35 957,296.5C 955.106,293.156 952.273,291.822 948.5,292.5C 947.5,300.5 946.5,308.5 945.5,316.5C 939.154,315.942 932.821,315.276 926.5,314.5C 929.499,293.837 932.499,273.171 935.5,252.5 Z"/></g>
<g><path style="opacity:1" fill="#362f2c" d="M 766.5,253.5 C 767.496,253.414 768.329,253.748 769,254.5C 769.923,258.79 770.423,263.123 770.5,267.5C 759.777,268.398 749.11,269.732 738.5,271.5C 738.933,274.166 739.433,276.832 740,279.5C 740.519,280.516 741.353,281.182 742.5,281.5C 751.746,279.514 761.08,278.181 770.5,277.5C 771.2,281.798 771.533,286.131 771.5,290.5C 762.107,291.121 752.774,292.287 743.5,294C 743.043,294.414 742.709,294.914 742.5,295.5C 743.49,299.105 744.156,302.772 744.5,306.5C 755.45,304.508 766.45,302.842 777.5,301.5C 778.296,306.147 778.963,310.814 779.5,315.5C 762.144,318.038 744.811,320.705 727.5,323.5C 724.424,303.121 721.091,282.787 717.5,262.5C 733.879,259.161 750.212,256.161 766.5,253.5 Z"/></g>
<g><path style="opacity:1" fill="#352e2c" d="M 1009.5,265.5 C 1014.71,267.304 1020.04,268.804 1025.5,270C 1026.52,270.519 1027.18,271.353 1027.5,272.5C 1022.75,291.931 1017.75,311.264 1012.5,330.5C 1006.05,329.636 999.713,328.302 993.5,326.5C 998.676,306.128 1004.01,285.795 1009.5,265.5 Z"/></g>
<g><path style="opacity:1" fill="#352e2c" d="M 692.5,267.5 C 694.451,267.227 695.951,267.893 697,269.5C 702.756,288.023 708.589,306.523 714.5,325C 713.907,326.882 712.573,327.882 710.5,328C 705.609,329.861 700.609,330.861 695.5,331C 685.667,323.167 675.833,315.333 666,307.5C 668.905,318.065 671.739,328.732 674.5,339.5C 669.058,340.758 663.724,342.425 658.5,344.5C 651.785,325.146 645.452,305.646 639.5,286C 639.905,285.055 640.572,284.388 641.5,284C 646.141,282.397 650.808,280.897 655.5,279.5C 666.243,287.954 677.076,296.288 688,304.5C 685.291,293.526 682.457,282.526 679.5,271.5C 684.072,270.612 688.405,269.279 692.5,267.5 Z"/></g>
<g><path style="opacity:1" fill="#f8f39a" d="M 952.5,268.5 C 957.637,268.494 962.637,269.327 967.5,271C 971.361,278.748 968.861,282.248 960,281.5C 957.443,281.445 954.943,281.112 952.5,280.5C 951.633,276.535 951.633,272.535 952.5,268.5 Z"/></g>
<g><path style="opacity:1" fill="#948e61" d="M 885.5,267.5 C 885.5,268.833 885.5,270.167 885.5,271.5C 888.059,271.198 890.393,271.532 892.5,272.5C 889.833,272.5 887.167,272.5 884.5,272.5C 884.216,270.585 884.549,268.919 885.5,267.5 Z"/></g>
<g><path style="opacity:1" fill="#928b60" d="M 822.5,275.5 C 821.791,276.404 820.791,276.737 819.5,276.5C 819.5,277.833 819.5,279.167 819.5,280.5C 818.549,279.081 818.216,277.415 818.5,275.5C 819.833,275.5 821.167,275.5 822.5,275.5 Z"/></g>
<g><path style="opacity:1" fill="#352e2c" d="M 1097.5,293.5 C 1101.32,294.074 1104.99,295.241 1108.5,297C 1109.91,297.368 1110.91,298.201 1111.5,299.5C 1103.59,318.391 1095.59,337.225 1087.5,356C 1083.07,355.305 1078.74,353.971 1074.5,352C 1073.09,351.632 1072.09,350.799 1071.5,349.5C 1076.5,337.5 1081.5,325.5 1086.5,313.5C 1080.23,313.182 1073.9,313.182 1067.5,313.5C 1068.83,309.167 1070.17,304.833 1071.5,300.5C 1081.27,301.791 1089.94,299.457 1097.5,293.5 Z"/></g>
<g><path style="opacity:1" fill="#928c60" d="M 912.5,298.5 C 913.833,298.5 915.167,298.5 916.5,298.5C 916.81,301.713 916.477,304.713 915.5,307.5C 915.5,304.833 915.5,302.167 915.5,299.5C 914.209,299.737 913.209,299.404 912.5,298.5 Z"/></g>
<g><path style="opacity:1" fill="#352e2c" d="M 579.5,309.5 C 593.349,309.013 601.015,315.68 602.5,329.5C 602.841,333.973 601.675,337.973 599,341.5C 593.059,346.215 586.892,350.548 580.5,354.5C 584.015,361.19 587.182,367.856 590,374.5C 584.505,377.247 579.171,380.247 574,383.5C 564.167,365.167 554.333,346.833 544.5,328.5C 556.1,321.87 567.767,315.536 579.5,309.5 Z"/></g>
<g><path style="opacity:1" fill="#f7f299" d="M 575.5,325.5 C 582.141,325.639 584.974,328.972 584,335.5C 581.278,338.444 578.111,340.777 574.5,342.5C 571.662,338.828 569.329,334.828 567.5,330.5C 570.231,328.808 572.898,327.142 575.5,325.5 Z"/></g>
<g><path style="opacity:1" fill="#352e2c" d="M 1164.5,325.5 C 1176.82,331.634 1188.82,338.467 1200.5,346C 1206.6,351.743 1208.1,358.577 1205,366.5C 1201.27,371.118 1196.43,373.784 1190.5,374.5C 1196.22,382.812 1195.55,390.645 1188.5,398C 1182,402.147 1175.33,402.481 1168.5,399C 1156.41,392.968 1145.07,385.968 1134.5,378C 1144.74,360.605 1154.74,343.105 1164.5,325.5 Z"/></g>
<g><path style="opacity:1" fill="#352e2c" d="M 526.5,337.5 C 528.592,337.561 530.092,338.561 531,340.5C 541.251,356.671 551.751,372.671 562.5,388.5C 558.465,391.857 554.132,394.857 549.5,397.5C 540.803,384.635 532.303,371.635 524,358.5C 528.935,373.636 534.102,388.803 539.5,404C 535.63,406.765 531.63,409.265 527.5,411.5C 515.246,401.419 503.413,390.752 492,379.5C 499.594,392.65 507.761,405.65 516.5,418.5C 512.496,421.662 508.33,424.662 504,427.5C 492.696,410.031 481.196,392.698 469.5,375.5C 476.5,370.833 483.5,366.167 490.5,361.5C 500.15,369.982 509.65,378.649 519,387.5C 515.704,375.44 511.87,363.44 507.5,351.5C 513.685,346.58 520.018,341.913 526.5,337.5 Z"/></g>
<g><path style="opacity:1" fill="#f8f39a" d="M 1175.5,346.5 C 1179.96,347.787 1183.79,350.12 1187,353.5C 1188.33,359.834 1185.83,362.668 1179.5,362C 1176.17,360 1172.83,358 1169.5,356C 1171.64,352.89 1173.64,349.723 1175.5,346.5 Z"/></g>
<g><path style="opacity:1" fill="#352e2c" d="M 1227.5,365.5 C 1228.55,365.351 1229.55,365.517 1230.5,366C 1234.87,369.511 1239.21,373.011 1243.5,376.5C 1231.89,393.446 1219.89,410.112 1207.5,426.5C 1202.01,423.165 1197.01,419.332 1192.5,415C 1204.37,398.631 1216.04,382.131 1227.5,365.5 Z"/></g>
<g><path style="opacity:1" fill="#f8f39a" d="M 1163.5,366.5 C 1168.4,368.87 1172.9,371.87 1177,375.5C 1178.17,382.333 1175.33,385.167 1168.5,384C 1164.92,381.959 1161.42,379.792 1158,377.5C 1159.25,373.674 1161.08,370.007 1163.5,366.5 Z"/></g>
<g><path style="opacity:1" fill="#352e2c" d="M 1259.5,388.5 C 1264.66,392.159 1269.32,396.325 1273.5,401C 1271.71,414.498 1270.21,427.998 1269,441.5C 1275.97,432.693 1283.47,424.36 1291.5,416.5C 1296.13,419.791 1300.46,423.458 1304.5,427.5C 1291.18,443.488 1277.51,459.155 1263.5,474.5C 1259.05,471.186 1254.89,467.52 1251,463.5C 1251.59,449.793 1252.59,436.126 1254,422.5C 1247.52,430.614 1240.69,438.447 1233.5,446C 1232.5,446.667 1231.5,446.667 1230.5,446C 1226.15,442.988 1222.49,439.321 1219.5,435C 1233.03,419.639 1246.36,404.139 1259.5,388.5 Z"/></g>
<g><path style="opacity:1" fill="#352e2c" d="M 446.5,396.5 C 453.795,395.229 460.128,397.062 465.5,402C 461.5,406 457.5,410 453.5,414C 447.496,411.142 442.33,412.309 438,417.5C 436.67,422.498 438.504,424.664 443.5,424C 447.993,421.921 452.326,419.588 456.5,417C 464.861,412.395 473.195,412.395 481.5,417C 490.25,426.691 490.75,436.857 483,447.5C 476.825,454.688 469.325,459.855 460.5,463C 452.842,464.503 446.509,462.337 441.5,456.5C 445.485,452.015 449.651,447.682 454,443.5C 458.948,448.655 464.115,448.822 469.5,444C 472.916,440.531 473.25,436.864 470.5,433C 468.635,431.699 466.635,431.365 464.5,432C 459.349,434.076 454.349,436.41 449.5,439C 430.684,445.695 421.85,439.195 423,419.5C 428.546,409.481 436.379,401.814 446.5,396.5 Z"/></g>
<g><path style="opacity:1" fill="#393230" d="M 944.5,789.5 C 942.795,791.192 940.795,792.525 938.5,793.5C 943.547,734.435 953.047,676.101 967,618.5C 973.967,596.598 981.134,574.765 988.5,553C 988.167,552.5 987.833,552 987.5,551.5C 980.483,557.683 973.983,564.35 968,571.5C 931.529,618.422 898.529,667.756 869,719.5C 863.394,730.378 858.061,741.378 853,752.5C 851.392,755.351 850.726,758.351 851,761.5C 860.333,775.5 869.667,789.5 879,803.5C 879.497,805.81 879.663,808.143 879.5,810.5C 892.516,810.633 905.516,810.299 918.5,809.5C 917.154,811.537 915.82,813.537 914.5,815.5C 900.839,816.057 887.172,816.557 873.5,817C 866.018,819.331 858.352,820.497 850.5,820.5C 827.121,819.029 803.787,817.029 780.5,814.5C 778.241,814.532 776.075,814.866 774,815.5C 771.45,824.469 772.116,833.135 776,841.5C 776.75,842.126 777.584,842.626 778.5,843C 806.13,846.033 833.797,848.7 861.5,851C 875.199,851.78 888.866,851.613 902.5,850.5C 901.736,853.018 900.736,855.351 899.5,857.5C 869.724,858.436 840.057,856.77 810.5,852.5C 809.167,852.833 807.833,853.167 806.5,853.5C 808.035,859.442 809.368,865.442 810.5,871.5C 810.747,872.713 811.414,873.38 812.5,873.5C 809.026,874.525 805.36,875.192 801.5,875.5C 802.209,874.596 803.209,874.263 804.5,874.5C 803.917,866.419 802.251,858.586 799.5,851C 792.185,850.13 784.852,849.463 777.5,849C 772.162,846.993 768.996,843.159 768,837.5C 767.667,830.167 767.333,822.833 767,815.5C 758.108,811.606 752.441,804.939 750,795.5C 747.862,788.614 746.195,781.614 745,774.5C 736.27,710.179 721.937,647.179 702,585.5C 695.776,572.388 690.11,559.055 685,545.5C 683.25,537.578 686.083,535.078 693.5,538C 696.5,540.333 699.5,542.667 702.5,545C 722.168,565.49 740.501,586.99 757.5,609.5C 757.783,610.289 758.283,610.956 759,611.5C 759.801,608.633 759.634,605.966 758.5,603.5C 754.097,566.664 744.93,530.997 731,496.5C 727.907,487.372 726.24,478.039 726,468.5C 728.072,463.857 731.572,462.357 736.5,464C 738.5,465 740.5,466 742.5,467C 764.28,484.774 782.447,505.607 797,529.5C 804.111,488.836 816.444,449.836 834,412.5C 842.386,396.919 852.386,395.586 864,408.5C 870.65,420.474 875.65,433.141 879,446.5C 887.058,479.514 893.391,512.847 898,546.5C 912.935,515.892 934.102,490.392 961.5,470C 969.106,465.474 973.773,467.474 975.5,476C 975,479.5 974.5,483 974,486.5C 967.202,508.561 960.202,530.561 953,552.5C 949.043,565.646 946.377,578.98 945,592.5C 955.955,576.462 968.455,561.629 982.5,548C 984.56,546.304 986.893,545.137 989.5,544.5C 992.862,545.362 994.528,547.529 994.5,551C 988.81,571.404 982.31,591.57 975,611.5C 960.326,670.047 950.16,729.381 944.5,789.5 Z"/></g>
<g><path style="opacity:1" fill="#e52129" d="M 847.5,405.5 C 852.542,405.015 856.376,407.015 859,411.5C 863.474,419.451 867.141,427.784 870,436.5C 880.126,473.25 887.459,510.584 892,548.5C 896.013,581.614 899.513,614.78 902.5,648C 902.333,650.167 902.167,652.333 902,654.5C 880.79,685.57 862.124,718.237 846,752.5C 827.667,721.833 809.333,691.167 791,660.5C 790.819,597.43 799.152,535.43 816,474.5C 822.098,454.203 829.765,434.536 839,415.5C 841.624,411.869 844.458,408.536 847.5,405.5 Z"/></g>
<g><path style="opacity:1" fill="#352e2c" d="M 1328.5,456.5 C 1331.06,457.543 1333.22,459.21 1335,461.5C 1338.23,465.063 1341.07,468.896 1343.5,473C 1333.22,492.393 1322.55,511.559 1311.5,530.5C 1306.82,525.821 1302.49,520.821 1298.5,515.5C 1300.62,512.754 1302.62,509.921 1304.5,507C 1300.06,500.944 1295.06,495.444 1289.5,490.5C 1286.33,492.266 1283,493.099 1279.5,493C 1275.95,488.74 1272.28,484.573 1268.5,480.5C 1268.98,479.522 1269.64,478.689 1270.5,478C 1290.12,471.296 1309.46,464.129 1328.5,456.5 Z"/></g>
<g><path style="opacity:1" fill="#352e2c" d="M 380.5,459.5 C 384.828,462.004 388.828,465.004 392.5,468.5C 389.243,473.346 385.743,478.012 382,482.5C 381.251,483.635 381.417,484.635 382.5,485.5C 394.642,494.475 406.642,503.642 418.5,513C 414.609,517.965 410.609,522.799 406.5,527.5C 394.691,518.859 383.025,510.025 371.5,501C 370.5,500.333 369.5,500.333 368.5,501C 364.643,505.52 360.81,510.02 357,514.5C 352.723,512.056 348.89,509.056 345.5,505.5C 357.176,490.137 368.842,474.803 380.5,459.5 Z"/></g>
<g><path style="opacity:1" fill="#f4ef98" d="M 1322.5,475.5 C 1323.24,475.369 1323.91,475.536 1324.5,476C 1320.33,482.167 1316.17,488.333 1312,494.5C 1308.93,491.352 1306.1,488.019 1303.5,484.5C 1309.84,481.288 1316.17,478.288 1322.5,475.5 Z"/></g>
<g><path style="opacity:1" fill="#352e2c" d="M 1366.5,503.5 C 1367.68,503.281 1368.68,503.614 1369.5,504.5C 1373.5,511.167 1377.5,517.833 1381.5,524.5C 1373.38,534.12 1364.72,543.287 1355.5,552C 1367.35,548.941 1379.19,545.441 1391,541.5C 1391.77,541.645 1392.44,541.978 1393,542.5C 1396.97,549.3 1401.14,555.966 1405.5,562.5C 1388.12,573.713 1370.62,584.713 1353,595.5C 1350.1,592.041 1347.43,588.374 1345,584.5C 1344.25,583.365 1344.42,582.365 1345.5,581.5C 1358.3,573.865 1370.97,566.031 1383.5,558C 1368.65,562.06 1353.81,566.56 1339,571.5C 1337.74,571.241 1336.74,570.574 1336,569.5C 1334.33,566.833 1332.67,564.167 1331,561.5C 1330.68,560.092 1331.02,558.759 1332,557.5C 1342.2,547.637 1352.03,537.471 1361.5,527C 1348.85,533.922 1336.35,541.422 1324,549.5C 1320.97,545.302 1318.14,540.968 1315.5,536.5C 1332.74,525.725 1349.74,514.725 1366.5,503.5 Z"/></g>
<g><path style="opacity:1" fill="#352e2c" d="M 338.5,522.5 C 350.261,521.296 358.761,525.963 364,536.5C 364.791,540.926 364.457,545.259 363,549.5C 360.167,554.5 357.333,559.5 354.5,564.5C 360.536,569.191 366.869,573.525 373.5,577.5C 370.314,583.218 366.648,588.552 362.5,593.5C 345.167,582.5 327.833,571.5 310.5,560.5C 316.865,550.632 323.032,540.632 329,530.5C 331.772,527.217 334.939,524.55 338.5,522.5 Z"/></g>
<g><path style="opacity:1" fill="#f5f098" d="M 339.5,540.5 C 347.579,541.071 350.079,545.071 347,552.5C 345.667,554.5 344.333,556.5 343,558.5C 339.005,555.996 335.172,553.329 331.5,550.5C 333.716,546.692 336.383,543.359 339.5,540.5 Z"/></g>
<g><path style="opacity:1" fill="#352e2c" d="M 299.5,581.5 C 310.914,585.704 322.247,590.204 333.5,595C 350.673,603.179 355.173,616.012 347,633.5C 343.807,643.359 337.307,649.859 327.5,653C 324.5,653.667 321.5,653.667 318.5,653C 304.951,648.226 291.618,642.893 278.5,637C 277.446,635.612 277.28,634.112 278,632.5C 280.137,627.916 281.971,623.25 283.5,618.5C 295.966,623.161 308.3,628.328 320.5,634C 331.264,634.559 335.764,629.392 334,618.5C 332.833,617.333 331.667,616.167 330.5,615C 318.616,609.558 306.616,604.391 294.5,599.5C 293.386,598.277 293.219,596.944 294,595.5C 296.124,590.924 297.957,586.257 299.5,581.5 Z"/></g>
<g><path style="opacity:1" fill="#352e2c" d="M 1412.5,583.5 C 1413.82,583.33 1414.99,583.663 1416,584.5C 1418.63,589.724 1420.63,595.057 1422,600.5C 1410.27,605.857 1398.43,611.024 1386.5,616C 1379.22,621.066 1378.55,627.066 1384.5,634C 1386.21,635.545 1388.21,636.378 1390.5,636.5C 1404.04,631.733 1417.37,626.399 1430.5,620.5C 1433.92,625.717 1436.58,631.384 1438.5,637.5C 1425.09,643.873 1411.42,649.706 1397.5,655C 1383.31,656.156 1373.81,649.989 1369,636.5C 1360.64,621.256 1363.47,608.756 1377.5,599C 1389.26,593.783 1400.92,588.616 1412.5,583.5 Z"/></g>
<g><path style="opacity:1" fill="#36302e" d="M 838.5,1027.5 C 841.021,1022.85 842.021,1017.85 841.5,1012.5C 845.153,1028.37 848.82,1044.37 852.5,1060.5C 852.64,1062.03 853.307,1063.03 854.5,1063.5C 853.737,1066.14 853.57,1068.81 854,1071.5C 855.176,1073.2 856.343,1074.86 857.5,1076.5C 841.16,1087.67 823.16,1094.84 803.5,1098C 796.351,1098.91 789.351,1098.24 782.5,1096C 774.752,1092.7 767.419,1088.87 760.5,1084.5C 759.804,1098.95 756.137,1112.62 749.5,1125.5C 786.869,1136.16 823.703,1134.49 860,1120.5C 860.815,1105.76 860.649,1091.09 859.5,1076.5C 861.764,1077.22 864.097,1077.55 866.5,1077.5C 866.5,1092.17 866.5,1106.83 866.5,1121.5C 902.263,1130.99 938.263,1131.99 974.5,1124.5C 968.012,1111.04 963.346,1097.04 960.5,1082.5C 940.428,1093.29 919.428,1095.79 897.5,1090C 887.094,1086.62 877.094,1082.46 867.5,1077.5C 874.641,1073.1 875.974,1067.43 871.5,1060.5C 873.094,1056.75 874.261,1052.75 875,1048.5C 881.325,1013.05 888.158,977.72 895.5,942.5C 898.152,942.41 900.485,943.076 902.5,944.5C 901.069,944.881 900.236,945.881 900,947.5C 892.008,989.135 884.175,1030.8 876.5,1072.5C 876.833,1073.5 877.167,1074.5 877.5,1075.5C 907.454,1092.21 936.788,1091.21 965.5,1072.5C 967.813,1094.61 974.98,1114.94 987,1133.5C 987.837,1135.01 989.004,1135.51 990.5,1135C 1076.87,1068.68 1115.7,980.842 1107,871.5C 1105.07,844.762 1102.4,818.096 1099,791.5C 1093.13,752.98 1088.47,714.313 1085,675.5C 1081.48,634.233 1086.81,594.233 1101,555.5C 1115.25,523.852 1136.08,497.352 1163.5,476C 1174.23,468.274 1185.23,460.941 1196.5,454C 1200.05,454.816 1203.21,456.65 1206,459.5C 1206.32,461.553 1205.99,463.553 1205,465.5C 1198.54,480.2 1192.88,495.2 1188,510.5C 1186.42,528.461 1186.08,546.461 1187,564.5C 1188.39,584.229 1190.39,603.896 1193,623.5C 1200.61,670.825 1208.11,718.159 1215.5,765.5C 1225.43,738.881 1235.26,712.215 1245,685.5C 1255.62,656.586 1269.62,629.586 1287,604.5C 1290.35,606.046 1293.85,607.046 1297.5,607.5C 1301.03,644.42 1302.2,681.42 1301,718.5C 1299.26,750.669 1296.26,782.669 1292,814.5C 1313.19,784.141 1331.86,752.141 1348,718.5C 1348.56,717.978 1349.23,717.645 1350,717.5C 1353.45,718.489 1356.95,719.156 1360.5,719.5C 1360.38,760.605 1356.21,801.272 1348,841.5C 1342.97,857.921 1337.97,874.254 1333,890.5C 1352.06,869.777 1370.73,848.777 1389,827.5C 1392.19,829.677 1395.69,831.177 1399.5,832C 1391.63,885.05 1378.8,936.883 1361,987.5C 1315.61,1109.89 1231.44,1193.05 1108.5,1237C 1045.15,1258.74 980.145,1273.07 913.5,1280C 894.794,1282.43 879.628,1290.93 868,1305.5C 866.256,1309.58 864.423,1313.58 862.5,1317.5C 841.696,1297.82 817.03,1285.66 788.5,1281C 700.966,1270.71 618.633,1244.38 541.5,1202C 474.522,1164.69 420.022,1113.86 378,1049.5C 334.068,978.437 314.901,901.103 320.5,817.5C 323.296,816.401 326.129,815.401 329,814.5C 333.786,819.37 338.119,824.703 342,830.5C 350.496,846.162 359.496,861.496 369,876.5C 372.667,880.833 376.333,885.167 380,889.5C 370.897,868.266 362.563,846.599 355,824.5C 348.135,800.474 346.802,776.141 351,751.5C 354.082,736.169 358.249,721.169 363.5,706.5C 367.743,707.269 371.909,708.269 376,709.5C 380.741,731.217 386.741,752.55 394,773.5C 401.017,789.488 410.017,804.155 421,817.5C 417.887,800.93 414.887,784.263 412,767.5C 401.589,709.55 405.256,652.55 423,596.5C 426.107,591.498 429.94,590.665 434.5,594C 444.331,607.821 452.498,622.654 459,638.5C 470.863,670.09 481.53,702.09 491,734.5C 495.557,746.833 500.89,758.833 507,770.5C 505.834,733.185 505.5,695.851 506,658.5C 508.522,631.657 512.189,604.99 517,578.5C 522.492,533.754 518.992,489.754 506.5,446.5C 509.723,438.512 514.723,437.345 521.5,443C 549.333,465.5 574.5,490.667 597,518.5C 621.82,554.959 635.487,595.293 638,639.5C 639.323,674.64 637.657,709.64 633,744.5C 625.502,791.652 619.502,838.985 615,886.5C 612.241,925.267 614.907,963.6 623,1001.5C 640.466,1061.62 675.466,1108.62 728,1142.5C 737.674,1134.47 744.674,1124.47 749,1112.5C 753.063,1099.13 755.729,1085.46 757,1071.5C 777.598,1094.35 801.764,1098.85 829.5,1085C 835.833,1081.83 842.167,1078.67 848.5,1075.5C 849.631,1073.93 849.798,1072.26 849,1070.5C 845.939,1055.92 842.439,1041.59 838.5,1027.5 Z"/></g>
<g><path style="opacity:1" fill="#1a92cc" d="M 459.5,673.5 C 462.828,684.825 466.161,696.159 469.5,707.5C 452.577,706.515 435.577,706.182 418.5,706.5C 418.316,695.477 418.649,684.477 419.5,673.5C 432.833,673.5 446.167,673.5 459.5,673.5 Z"/></g>
<g><path style="opacity:1" fill="#1a92cc" d="M 624.5,705.5 C 588.833,705.5 553.167,705.5 517.5,705.5C 517.5,707.167 517.5,708.833 517.5,710.5C 516.514,706.03 516.181,701.363 516.5,696.5C 516.309,688.799 516.642,681.132 517.5,673.5C 553.834,673.247 590.168,672.914 626.5,672.5C 626.983,683.633 626.317,694.633 624.5,705.5 Z"/></g>
<g><path style="opacity:1" fill="#1a92cc" d="M 1188.5,670.5 C 1190.33,681.107 1191.99,691.774 1193.5,702.5C 1162,702.871 1130.67,703.538 1099.5,704.5C 1098.52,701.713 1098.19,698.713 1098.5,695.5C 1097.67,687.195 1097.33,678.862 1097.5,670.5C 1127.83,670.5 1158.17,670.5 1188.5,670.5 Z"/></g>
<g><path style="opacity:1" fill="#1189c4" d="M 1294.5,655.5 C 1294.5,675.167 1294.5,694.833 1294.5,714.5C 1292.83,714.5 1291.17,714.5 1289.5,714.5C 1289.5,711.167 1289.5,707.833 1289.5,704.5C 1289.77,692.796 1289.44,681.129 1288.5,669.5C 1280.47,669.169 1272.47,669.502 1264.5,670.5C 1259.39,680.836 1255.05,691.503 1251.5,702.5C 1249.36,708.236 1247.03,713.903 1244.5,719.5C 1243.43,718.566 1242.1,718.232 1240.5,718.5C 1240.5,717.5 1240.5,716.5 1240.5,715.5C 1252.52,677.463 1269.35,641.796 1291,608.5C 1292.95,624.101 1294.12,639.768 1294.5,655.5 Z"/></g>
<g><path style="opacity:1" fill="#1a92cc" d="M 1289.5,704.5 C 1277.08,702.55 1264.42,701.883 1251.5,702.5C 1255.05,691.503 1259.39,680.836 1264.5,670.5C 1272.47,669.502 1280.47,669.169 1288.5,669.5C 1289.44,681.129 1289.77,692.796 1289.5,704.5 Z"/></g>
<g><path style="opacity:1" fill="#a29c69" d="M 758.5,603.5 C 759.634,605.966 759.801,608.633 759,611.5C 758.283,610.956 757.783,610.289 757.5,609.5C 758.461,607.735 758.795,605.735 758.5,603.5 Z"/></g>
<g><path style="opacity:1" fill="#118ac6" d="M 464.5,671.5 C 463.448,673.256 461.781,673.923 459.5,673.5C 446.167,673.5 432.833,673.5 419.5,673.5C 418.649,684.477 418.316,695.477 418.5,706.5C 418.108,716.06 418.775,725.393 420.5,734.5C 420.5,737.167 420.5,739.833 420.5,742.5C 418.621,741.659 416.621,741.325 414.5,741.5C 408.839,692.763 413.506,645.096 428.5,598.5C 429.002,597.479 429.668,597.312 430.5,598C 445.58,620.728 456.913,645.228 464.5,671.5 Z"/></g>
<g><path style="opacity:1" fill="#fcfcfc" d="M 938.5,793.5 C 931.569,798.423 924.903,803.756 918.5,809.5C 905.516,810.299 892.516,810.633 879.5,810.5C 879.663,808.143 879.497,805.81 879,803.5C 869.667,789.5 860.333,775.5 851,761.5C 850.726,758.351 851.392,755.351 853,752.5C 858.061,741.378 863.394,730.378 869,719.5C 898.529,667.756 931.529,618.422 968,571.5C 973.983,564.35 980.483,557.683 987.5,551.5C 987.833,552 988.167,552.5 988.5,553C 981.134,574.765 973.967,596.598 967,618.5C 953.047,676.101 943.547,734.435 938.5,793.5 Z"/></g>
<g><path style="opacity:1" fill="#fcfcfc" d="M 690.5,543.5 C 698.432,549.928 705.932,556.928 713,564.5C 730.758,584.921 747.758,605.921 764,627.5C 790.422,670.004 816.088,713.004 841,756.5C 852.114,773.421 862.947,790.421 873.5,807.5C 873.43,808.772 873.097,809.938 872.5,811C 868.057,812.94 863.39,813.94 858.5,814C 852.167,814.667 845.833,814.667 839.5,814C 819.801,812.497 800.134,810.664 780.5,808.5C 769.242,811.953 761.408,808.286 757,797.5C 755.131,792.228 753.465,786.894 752,781.5C 743.48,716.559 729.48,652.892 710,590.5C 703.487,574.812 696.987,559.145 690.5,543.5 Z"/></g>
<g><path style="opacity:1" fill="#fbfbfb" d="M 966.5,473.5 C 967.5,473.5 968.5,473.5 969.5,473.5C 969.707,480.718 968.54,487.718 966,494.5C 955.646,521.562 947.312,549.229 941,577.5C 939.521,586.146 938.188,594.813 937,603.5C 927.333,617.167 917.667,630.833 908,644.5C 905.643,617.117 902.809,589.784 899.5,562.5C 899.507,559.408 900.007,556.408 901,553.5C 916.419,521.581 938.253,494.914 966.5,473.5 Z"/></g>
<g><path style="opacity:1" fill="#fcfcfb" d="M 731.5,469.5 C 736.62,470.06 740.954,472.227 744.5,476C 757.065,487.895 768.898,500.395 780,513.5C 786.056,521.775 791.223,530.608 795.5,540C 789.603,575.929 785.769,612.096 784,648.5C 778,639.167 772,629.833 766,620.5C 764.577,599.597 761.577,578.93 757,558.5C 750.683,535.213 743.349,512.213 735,489.5C 732.737,483.019 731.57,476.352 731.5,469.5 Z"/></g>
<g><path style="opacity:1" fill="#0f8cc9" d="M 1193.5,665.5 C 1193.5,667.167 1193.5,668.833 1193.5,670.5C 1191.83,670.5 1190.17,670.5 1188.5,670.5C 1158.17,670.5 1127.83,670.5 1097.5,670.5C 1097.33,678.862 1097.67,687.195 1098.5,695.5C 1096.83,693.338 1094.83,693.005 1092.5,694.5C 1090.65,670.867 1090.15,647.2 1091,623.5C 1097.92,547.9 1134.75,493.234 1201.5,459.5C 1195.37,473.713 1189.54,488.046 1184,502.5C 1182.36,507.714 1181.36,513.047 1181,518.5C 1179.73,548.281 1181.06,577.948 1185,607.5C 1188.07,626.804 1190.9,646.137 1193.5,665.5 Z"/></g>
<g><path style="opacity:1" fill="#0f8cc9" d="M 629.5,723.5 C 628.596,724.209 628.263,725.209 628.5,726.5C 626.833,726.5 625.167,726.5 623.5,726.5C 623.894,719.504 624.227,712.504 624.5,705.5C 626.317,694.633 626.983,683.633 626.5,672.5C 590.168,672.914 553.834,673.247 517.5,673.5C 516.642,681.132 516.309,688.799 516.5,696.5C 514.833,696.5 513.167,696.5 511.5,696.5C 511.5,686.833 511.5,677.167 511.5,667.5C 513.507,637.283 517.34,607.283 523,577.5C 526.815,546.733 526.148,516.066 521,485.5C 518.215,471.774 515.548,458.107 513,444.5C 521.455,450.62 529.621,457.12 537.5,464C 552.667,477.833 567.167,492.333 581,507.5C 611.694,544.885 628.694,587.885 632,636.5C 633.092,665.563 632.258,694.563 629.5,723.5 Z"/></g>
<g><path style="opacity:1" fill="#2698cf" d="M 1193.5,702.5 C 1195.27,712.114 1196.94,721.781 1198.5,731.5C 1166.9,730.871 1135.24,730.871 1103.5,731.5C 1103.5,732.5 1103.5,733.5 1103.5,734.5C 1101.52,724.728 1100.18,714.728 1099.5,704.5C 1130.67,703.538 1162,702.871 1193.5,702.5 Z"/></g>
<g><path style="opacity:1" fill="#2698cf" d="M 1251.5,702.5 C 1264.42,701.883 1277.08,702.55 1289.5,704.5C 1289.5,707.833 1289.5,711.167 1289.5,714.5C 1289.33,722.357 1288.67,730.023 1287.5,737.5C 1287.5,735.167 1287.5,732.833 1287.5,730.5C 1272.17,730.5 1256.83,730.5 1241.5,730.5C 1242.3,726.765 1243.3,723.099 1244.5,719.5C 1247.03,713.903 1249.36,708.236 1251.5,702.5 Z"/></g>
<g><path style="opacity:1" fill="#2899cf" d="M 624.5,705.5 C 624.227,712.504 623.894,719.504 623.5,726.5C 622.434,732.825 621.434,739.158 620.5,745.5C 620.5,744.5 620.5,743.5 620.5,742.5C 586.827,742.386 553.161,742.719 519.5,743.5C 519.5,745.167 519.5,746.833 519.5,748.5C 518.356,736.013 517.689,723.346 517.5,710.5C 517.5,708.833 517.5,707.167 517.5,705.5C 553.167,705.5 588.833,705.5 624.5,705.5 Z"/></g>
<g><path style="opacity:1" fill="#2698cf" d="M 418.5,706.5 C 435.577,706.182 452.577,706.515 469.5,707.5C 472.669,716.341 475.669,725.341 478.5,734.5C 459.278,734.433 439.945,734.433 420.5,734.5C 418.775,725.393 418.108,716.06 418.5,706.5 Z"/></g>
<g><path style="opacity:1" fill="#1779a9" d="M 1344.5,831.5 C 1342.17,832.167 1339.83,832.833 1337.5,833.5C 1338.04,831.883 1338.37,830.216 1338.5,828.5C 1344.09,801.918 1346.93,774.918 1347,747.5C 1339.97,760.002 1332.8,772.335 1325.5,784.5C 1323.83,783.833 1322.17,783.167 1320.5,782.5C 1331.9,762.047 1343.06,741.38 1354,720.5C 1354.2,757.802 1351.03,794.802 1344.5,831.5 Z"/></g>
<g><path style="opacity:1" fill="#167cae" d="M 1294.5,655.5 C 1296.95,702.935 1294.62,750.268 1287.5,797.5C 1285.83,797.5 1284.17,797.5 1282.5,797.5C 1283.67,786.516 1284.67,775.516 1285.5,764.5C 1287.03,755.712 1287.7,746.712 1287.5,737.5C 1288.67,730.023 1289.33,722.357 1289.5,714.5C 1291.17,714.5 1292.83,714.5 1294.5,714.5C 1294.5,694.833 1294.5,675.167 1294.5,655.5 Z"/></g>
<g><path style="opacity:1" fill="#339ed1" d="M 1241.5,730.5 C 1256.83,730.5 1272.17,730.5 1287.5,730.5C 1287.5,732.833 1287.5,735.167 1287.5,737.5C 1287.7,746.712 1287.03,755.712 1285.5,764.5C 1267.01,763.503 1248.34,763.17 1229.5,763.5C 1233.13,752.272 1237.13,741.272 1241.5,730.5 Z"/></g>
<g><path style="opacity:1" fill="#339ed2" d="M 1198.5,731.5 C 1200.17,742.831 1201.83,754.164 1203.5,765.5C 1187.55,764.181 1171.39,763.515 1155,763.5C 1139,763.5 1123.16,763.833 1107.5,764.5C 1105.12,754.776 1103.79,744.776 1103.5,734.5C 1103.5,733.5 1103.5,732.5 1103.5,731.5C 1135.24,730.871 1166.9,730.871 1198.5,731.5 Z"/></g>
<g><path style="opacity:1" fill="#359fd2" d="M 620.5,745.5 C 619.243,757.689 617.576,769.689 615.5,781.5C 613.952,780.206 611.952,779.539 609.5,779.5C 579.845,780.452 550.178,780.785 520.5,780.5C 519.723,769.852 519.39,759.185 519.5,748.5C 519.5,746.833 519.5,745.167 519.5,743.5C 553.161,742.719 586.827,742.386 620.5,742.5C 620.5,743.5 620.5,744.5 620.5,745.5 Z"/></g>
<g><path style="opacity:1" fill="#329ed1" d="M 478.5,734.5 C 482.442,745.327 486.776,755.994 491.5,766.5C 469.167,766.5 446.833,766.5 424.5,766.5C 422.647,758.734 421.314,750.734 420.5,742.5C 420.5,739.833 420.5,737.167 420.5,734.5C 439.945,734.433 459.278,734.433 478.5,734.5 Z"/></g>
<g><path style="opacity:1" fill="#177bad" d="M 1193.5,665.5 C 1201.6,707.421 1207.76,749.754 1212,792.5C 1221.82,766.85 1231.32,741.184 1240.5,715.5C 1240.5,716.5 1240.5,717.5 1240.5,718.5C 1242.1,718.232 1243.43,718.566 1244.5,719.5C 1243.3,723.099 1242.3,726.765 1241.5,730.5C 1237.13,741.272 1233.13,752.272 1229.5,763.5C 1225.58,773.432 1221.74,783.432 1218,793.5C 1213.89,794.556 1209.72,794.556 1205.5,793.5C 1205.66,784.095 1205,774.762 1203.5,765.5C 1201.83,754.164 1200.17,742.831 1198.5,731.5C 1196.94,721.781 1195.27,712.114 1193.5,702.5C 1191.99,691.774 1190.33,681.107 1188.5,670.5C 1190.17,670.5 1191.83,670.5 1193.5,670.5C 1193.5,668.833 1193.5,667.167 1193.5,665.5 Z"/></g>
<g><path style="opacity:1" fill="#177bac" d="M 511.5,667.5 C 511.5,677.167 511.5,686.833 511.5,696.5C 513.167,696.5 514.833,696.5 516.5,696.5C 516.181,701.363 516.514,706.03 517.5,710.5C 517.689,723.346 518.356,736.013 519.5,748.5C 519.39,759.185 519.723,769.852 520.5,780.5C 520.827,785.544 520.494,790.544 519.5,795.5C 516.627,796.875 513.627,797.875 510.5,798.5C 503.163,788.502 496.829,777.835 491.5,766.5C 486.776,755.994 482.442,745.327 478.5,734.5C 475.669,725.341 472.669,716.341 469.5,707.5C 466.161,696.159 462.828,684.825 459.5,673.5C 461.781,673.923 463.448,673.256 464.5,671.5C 472.599,697.962 481.432,724.295 491,750.5C 497.632,765.766 505.298,780.432 514,794.5C 513.735,759.306 512.568,724.139 510.5,689C 510.5,681.659 510.834,674.492 511.5,667.5 Z"/></g>
<g><path style="opacity:1" fill="#1f1a1a" d="M 313.5,771.5 C 332.711,771.528 340.877,780.861 338,799.5C 332.692,810.729 323.858,814.896 311.5,812C 298.893,805.615 295.06,795.782 300,782.5C 303.666,777.758 308.166,774.092 313.5,771.5 Z"/></g>
<g><path style="opacity:1" fill="#1e1919" d="M 902.5,944.5 C 900.485,943.076 898.152,942.41 895.5,942.5C 886.774,939.956 877.774,938.29 868.5,937.5C 868.169,945.86 868.502,954.193 869.5,962.5C 876.287,968.243 875.954,973.576 868.5,978.5C 866.379,978.675 864.379,978.341 862.5,977.5C 855.845,972.538 855.845,967.538 862.5,962.5C 863.498,953.859 863.831,945.192 863.5,936.5C 857.407,936.139 851.407,936.639 845.5,938C 839.393,941.612 833.727,945.779 828.5,950.5C 826.475,952.196 824.475,953.863 822.5,955.5C 814.981,960.537 811.814,967.537 813,976.5C 814.658,983.5 817.825,989.666 822.5,995C 825.647,995.881 828.647,997.047 831.5,998.5C 835.5,1000.5 838.5,1003.5 840.5,1007.5C 841.038,1009.12 841.371,1010.78 841.5,1012.5C 842.021,1017.85 841.021,1022.85 838.5,1027.5C 835.417,1030.92 831.75,1031.42 827.5,1029C 817.289,1019.39 811.455,1007.56 810,993.5C 803.344,985.355 797.011,985.688 791,994.5C 787.667,1001.5 787.667,1008.5 791,1015.5C 793.732,1019.24 796.066,1023.24 798,1027.5C 799.692,1040.81 793.858,1047.64 780.5,1048C 777.047,1046.27 775.214,1043.44 775,1039.5C 774.333,1031.17 774.333,1022.83 775,1014.5C 777.016,1009.01 777.849,1003.35 777.5,997.5C 775.692,997.491 774.025,997.991 772.5,999C 768.286,1003.55 764.453,1008.38 761,1013.5C 756.354,1019.85 750.187,1023.02 742.5,1023C 739.71,1018.94 738.877,1014.44 740,1009.5C 752.038,978.233 756.705,945.9 754,912.5C 761.2,896.967 772.7,885.8 788.5,879C 792.629,877.051 796.963,875.884 801.5,875.5C 805.36,875.192 809.026,874.525 812.5,873.5C 816.804,872.869 821.137,872.369 825.5,872C 844.167,871.667 862.833,871.333 881.5,871C 889.67,869.323 895.67,864.823 899.5,857.5C 900.736,855.351 901.736,853.018 902.5,850.5C 907.888,839.373 911.888,827.707 914.5,815.5C 915.82,813.537 917.154,811.537 918.5,809.5C 924.903,803.756 931.569,798.423 938.5,793.5C 940.795,792.525 942.795,791.192 944.5,789.5C 948.139,787.345 951.806,785.178 955.5,783C 961.114,781.676 966.114,782.843 970.5,786.5C 976.917,796.333 983.084,806.333 989,816.5C 993.153,822.948 994.82,829.948 994,837.5C 993.204,839.967 991.537,841.3 989,841.5C 982.286,838.466 975.786,834.966 969.5,831C 962.67,828.02 956.837,829.186 952,834.5C 943.799,851.714 941.465,869.714 945,888.5C 947.612,894.725 949.945,901.058 952,907.5C 952.667,913.5 952.667,919.5 952,925.5C 950.672,930.792 950.005,936.126 950,941.5C 951.399,944.629 953.065,947.629 955,950.5C 961.333,957.5 967.667,964.5 974,971.5C 974.543,979.626 973.71,987.626 971.5,995.5C 971.86,999.273 972.693,1002.94 974,1006.5C 974.667,1011.5 974.667,1016.5 974,1021.5C 973.131,1026.71 970.131,1029.38 965,1029.5C 956.203,1028.26 949.87,1023.59 946,1015.5C 945.333,1012.5 945.333,1009.5 946,1006.5C 949.232,999.599 952.899,992.933 957,986.5C 959.446,980.734 958.779,975.401 955,970.5C 948.457,964.658 942.291,958.491 936.5,952C 933.061,949.003 929.561,948.837 926,951.5C 924.804,962.623 922.804,973.623 920,984.5C 917.894,987.608 916.228,990.941 915,994.5C 914.298,1003.68 914.464,1012.85 915.5,1022C 915.2,1031.65 910.533,1034.98 901.5,1032C 895.073,1027.43 892.073,1021.09 892.5,1013C 892.582,1009.76 893.082,1006.6 894,1003.5C 897.616,995.269 900.95,986.936 904,978.5C 905.433,968.203 905.767,957.869 905,947.5C 904.623,946.058 903.79,945.058 902.5,944.5 Z"/></g>
<g><path style="opacity:1" fill="#1f1a1a" d="M 1396.5,785.5 C 1413.85,785.022 1422.35,793.356 1422,810.5C 1416.6,824.282 1406.77,829.115 1392.5,825C 1378.21,814.736 1376.88,803.07 1388.5,790C 1391.1,788.205 1393.77,786.705 1396.5,785.5 Z"/></g>
<g><path style="opacity:1" fill="#43a5d5" d="M 1203.5,765.5 C 1205,774.762 1205.66,784.095 1205.5,793.5C 1209.72,794.556 1213.89,794.556 1218,793.5C 1221.74,783.432 1225.58,773.432 1229.5,763.5C 1248.34,763.17 1267.01,763.503 1285.5,764.5C 1284.67,775.516 1283.67,786.516 1282.5,797.5C 1281.4,801.909 1280.4,806.242 1279.5,810.5C 1279.5,809.5 1279.5,808.5 1279.5,807.5C 1224.83,807.333 1170.17,807.5 1115.5,808C 1114.03,808.71 1113.36,809.876 1113.5,811.5C 1110.79,796.063 1108.79,780.396 1107.5,764.5C 1123.16,763.833 1139,763.5 1155,763.5C 1171.39,763.515 1187.55,764.181 1203.5,765.5 Z"/></g>
<g><path style="opacity:1" fill="#43a6d5" d="M 424.5,766.5 C 446.833,766.5 469.167,766.5 491.5,766.5C 496.829,777.835 503.163,788.502 510.5,798.5C 513.627,797.875 516.627,796.875 519.5,795.5C 520.494,790.544 520.827,785.544 520.5,780.5C 550.178,780.785 579.845,780.452 609.5,779.5C 611.952,779.539 613.952,780.206 615.5,781.5C 615.095,791.333 613.762,801 611.5,810.5C 552.832,810.333 494.166,810.5 435.5,811C 434.244,811.417 433.577,812.25 433.5,813.5C 429.121,798.226 426.121,782.559 424.5,766.5 Z"/></g>
<g><path style="opacity:1" fill="#41a4d4" d="M 401.5,811.5 C 389.167,811.5 376.833,811.5 364.5,811.5C 362.809,804.024 361.476,796.358 360.5,788.5C 359.564,768.651 362.231,749.318 368.5,730.5C 372.868,746.306 377.702,761.973 383,777.5C 388.402,789.308 394.569,800.642 401.5,811.5 Z"/></g>
<g><path style="opacity:1" fill="#48a8d6" d="M 1338.5,828.5 C 1338.5,827.5 1338.5,826.5 1338.5,825.5C 1325.5,825.5 1312.5,825.5 1299.5,825.5C 1308.41,812.031 1317.07,798.364 1325.5,784.5C 1332.8,772.335 1339.97,760.002 1347,747.5C 1346.93,774.918 1344.09,801.918 1338.5,828.5 Z"/></g>
<g><path style="opacity:1" fill="#1878a8" d="M 1098.5,695.5 C 1098.19,698.713 1098.52,701.713 1099.5,704.5C 1100.18,714.728 1101.52,724.728 1103.5,734.5C 1103.79,744.776 1105.12,754.776 1107.5,764.5C 1108.79,780.396 1110.79,796.063 1113.5,811.5C 1113.59,815.857 1113.92,820.19 1114.5,824.5C 1112.38,824.675 1110.38,824.341 1108.5,823.5C 1102.44,780.59 1097.11,737.59 1092.5,694.5C 1094.83,693.005 1096.83,693.338 1098.5,695.5 Z"/></g>
<g><path style="opacity:1" fill="#1b739e" d="M 629.5,723.5 C 623.996,768.194 618.163,812.861 612,857.5C 610.059,872.777 608.893,888.11 608.5,903.5C 606.114,903.259 604.114,903.925 602.5,905.5C 602.786,896.498 603.119,887.498 603.5,878.5C 604.943,868.352 605.943,858.019 606.5,847.5C 608.52,835.352 610.186,823.019 611.5,810.5C 613.762,801 615.095,791.333 615.5,781.5C 617.576,769.689 619.243,757.689 620.5,745.5C 621.434,739.158 622.434,732.825 623.5,726.5C 625.167,726.5 626.833,726.5 628.5,726.5C 628.263,725.209 628.596,724.209 629.5,723.5 Z"/></g>
<g><path style="opacity:1" fill="#fcf79c" d="M 914.5,815.5 C 911.888,827.707 907.888,839.373 902.5,850.5C 888.866,851.613 875.199,851.78 861.5,851C 833.797,848.7 806.13,846.033 778.5,843C 777.584,842.626 776.75,842.126 776,841.5C 772.116,833.135 771.45,824.469 774,815.5C 776.075,814.866 778.241,814.532 780.5,814.5C 803.787,817.029 827.121,819.029 850.5,820.5C 858.352,820.497 866.018,819.331 873.5,817C 887.172,816.557 900.839,816.057 914.5,815.5 Z"/></g>
<g><path style="opacity:1" fill="#1b729d" d="M 1320.5,782.5 C 1322.17,783.167 1323.83,783.833 1325.5,784.5C 1317.07,798.364 1308.41,812.031 1299.5,825.5C 1295.36,830.481 1291.36,835.648 1287.5,841C 1284.01,841.103 1280.67,840.27 1277.5,838.5C 1277.17,836.833 1276.83,835.167 1276.5,833.5C 1277.59,825.839 1278.59,818.172 1279.5,810.5C 1280.4,806.242 1281.4,801.909 1282.5,797.5C 1284.17,797.5 1285.83,797.5 1287.5,797.5C 1286.03,810.553 1284.53,823.553 1283,836.5C 1296.53,819.148 1309.03,801.148 1320.5,782.5 Z"/></g>
<g><path style="opacity:1" fill="#1976a5" d="M 414.5,741.5 C 416.621,741.325 418.621,741.659 420.5,742.5C 421.314,750.734 422.647,758.734 424.5,766.5C 426.121,782.559 429.121,798.226 433.5,813.5C 434.699,821.862 436.699,830.029 439.5,838C 436.884,841.075 433.718,843.575 430,845.5C 419.768,834.651 410.268,823.318 401.5,811.5C 394.569,800.642 388.402,789.308 383,777.5C 377.702,761.973 372.868,746.306 368.5,730.5C 362.231,749.318 359.564,768.651 360.5,788.5C 358.833,788.5 357.167,788.5 355.5,788.5C 355.5,780.5 355.5,772.5 355.5,764.5C 357.19,745.409 361.856,727.075 369.5,709.5C 374.914,732.155 381.414,754.489 389,776.5C 400.21,800.267 414.876,821.601 433,840.5C 424.725,807.956 418.559,774.956 414.5,741.5 Z"/></g>
<g><path style="opacity:1" fill="#53add9" d="M 1279.5,810.5 C 1278.59,818.172 1277.59,825.839 1276.5,833.5C 1276.83,835.167 1277.17,836.833 1277.5,838.5C 1280.67,840.27 1284.01,841.103 1287.5,841C 1291.36,835.648 1295.36,830.481 1299.5,825.5C 1312.5,825.5 1325.5,825.5 1338.5,825.5C 1338.5,826.5 1338.5,827.5 1338.5,828.5C 1338.37,830.216 1338.04,831.883 1337.5,833.5C 1336.65,837.227 1335.65,840.893 1334.5,844.5C 1281.17,844.333 1227.83,844.5 1174.5,845C 1155.14,844.843 1136.14,845.676 1117.5,847.5C 1116.25,839.958 1115.25,832.292 1114.5,824.5C 1113.92,820.19 1113.59,815.857 1113.5,811.5C 1113.36,809.876 1114.03,808.71 1115.5,808C 1170.17,807.5 1224.83,807.333 1279.5,807.5C 1279.5,808.5 1279.5,809.5 1279.5,810.5 Z"/></g>
<g><path style="opacity:1" fill="#52add8" d="M 611.5,810.5 C 610.186,823.019 608.52,835.352 606.5,847.5C 529.834,847.867 453.167,848.201 376.5,848.5C 370.928,836.78 366.928,824.447 364.5,811.5C 376.833,811.5 389.167,811.5 401.5,811.5C 410.268,823.318 419.768,834.651 430,845.5C 433.718,843.575 436.884,841.075 439.5,838C 436.699,830.029 434.699,821.862 433.5,813.5C 433.577,812.25 434.244,811.417 435.5,811C 494.166,810.5 552.832,810.333 611.5,810.5 Z"/></g>
<g><path style="opacity:1" fill="#fcfcfc" d="M 899.5,857.5 C 895.67,864.823 889.67,869.323 881.5,871C 862.833,871.333 844.167,871.667 825.5,872C 821.137,872.369 816.804,872.869 812.5,873.5C 811.414,873.38 810.747,872.713 810.5,871.5C 809.368,865.442 808.035,859.442 806.5,853.5C 807.833,853.167 809.167,852.833 810.5,852.5C 840.057,856.77 869.724,858.436 899.5,857.5 Z"/></g>
<g><path style="opacity:1" fill="#5eb3db" d="M 1334.5,844.5 C 1332.59,853.17 1329.92,861.503 1326.5,869.5C 1257.51,870.47 1188.51,870.803 1119.5,870.5C 1119.5,872.167 1119.5,873.833 1119.5,875.5C 1118.34,866.352 1117.68,857.019 1117.5,847.5C 1136.14,845.676 1155.14,844.843 1174.5,845C 1227.83,844.5 1281.17,844.333 1334.5,844.5 Z"/></g>
<g><path style="opacity:1" fill="#5eb3db" d="M 606.5,847.5 C 605.943,858.019 604.943,868.352 603.5,878.5C 603.5,876.833 603.5,875.167 603.5,873.5C 531.495,873.25 459.495,873.583 387.5,874.5C 383.07,866.224 379.403,857.558 376.5,848.5C 453.167,848.201 529.834,847.867 606.5,847.5 Z"/></g>
<g><path style="opacity:1" fill="#206e95" d="M 1108.5,823.5 C 1110.38,824.341 1112.38,824.675 1114.5,824.5C 1115.25,832.292 1116.25,839.958 1117.5,847.5C 1117.68,857.019 1118.34,866.352 1119.5,875.5C 1119.5,884.833 1119.5,894.167 1119.5,903.5C 1119.81,907.042 1119.48,910.375 1118.5,913.5C 1117.08,912.549 1115.41,912.216 1113.5,912.5C 1113.5,911.167 1113.5,909.833 1113.5,908.5C 1114.03,880.027 1112.36,851.694 1108.5,823.5 Z"/></g>
<g><path style="opacity:1" fill="#1e698f" d="M 355.5,764.5 C 355.5,772.5 355.5,780.5 355.5,788.5C 357.167,788.5 358.833,788.5 360.5,788.5C 361.476,796.358 362.809,804.024 364.5,811.5C 366.928,824.447 370.928,836.78 376.5,848.5C 379.403,857.558 383.07,866.224 387.5,874.5C 391.989,886.137 396.989,897.47 402.5,908.5C 401.27,912.9 398.436,915.9 394,917.5C 389.212,914.189 384.712,910.522 380.5,906.5C 371.424,897.927 363.258,888.593 356,878.5C 347.667,864.167 339.333,849.833 331,835.5C 330.668,859.351 332.501,883.018 336.5,906.5C 337.449,913.911 338.782,921.245 340.5,928.5C 338.621,927.659 336.621,927.325 334.5,927.5C 326.156,891.65 323.156,855.317 325.5,818.5C 336.82,833.12 346.654,848.786 355,865.5C 365.238,883.081 378.405,898.247 394.5,911C 395.332,911.688 395.998,911.521 396.5,910.5C 382.385,881.274 370.219,851.274 360,820.5C 354.845,801.958 353.345,783.292 355.5,764.5 Z"/></g>
<g><path style="opacity:1" fill="#6bb8de" d="M 1326.5,869.5 C 1323.24,881.332 1318.91,892.666 1313.5,903.5C 1249,902.966 1184.33,902.966 1119.5,903.5C 1119.5,894.167 1119.5,884.833 1119.5,875.5C 1119.5,873.833 1119.5,872.167 1119.5,870.5C 1188.51,870.803 1257.51,870.47 1326.5,869.5 Z"/></g>
<g><path style="opacity:1" fill="#6bb8de" d="M 603.5,878.5 C 603.119,887.498 602.786,896.498 602.5,905.5C 602.5,915.833 602.5,926.167 602.5,936.5C 601.596,935.791 601.263,934.791 601.5,933.5C 601.5,924.167 601.5,914.833 601.5,905.5C 534.826,905.591 468.493,906.591 402.5,908.5C 396.989,897.47 391.989,886.137 387.5,874.5C 459.495,873.583 531.495,873.25 603.5,873.5C 603.5,875.167 603.5,876.833 603.5,878.5 Z"/></g>
<g><path style="opacity:1" fill="#69b7dd" d="M 380.5,906.5 C 365.833,906.5 351.167,906.5 336.5,906.5C 332.501,883.018 330.668,859.351 331,835.5C 339.333,849.833 347.667,864.167 356,878.5C 363.258,888.593 371.424,897.927 380.5,906.5 Z"/></g>
<g><path style="opacity:1" fill="#1f678c" d="M 1344.5,831.5 C 1336.14,863.183 1325.31,893.85 1312,923.5C 1339.37,893.13 1366.37,862.463 1393,831.5C 1389.15,857.942 1384.31,884.275 1378.5,910.5C 1376.17,911.167 1373.83,911.833 1371.5,912.5C 1376.82,892.756 1380.65,872.756 1383,852.5C 1360.33,877.833 1337.67,903.167 1315,928.5C 1311.92,926.045 1308.76,923.711 1305.5,921.5C 1308.71,915.745 1311.38,909.745 1313.5,903.5C 1318.91,892.666 1323.24,881.332 1326.5,869.5C 1329.92,861.503 1332.59,853.17 1334.5,844.5C 1335.65,840.893 1336.65,837.227 1337.5,833.5C 1339.83,832.833 1342.17,832.167 1344.5,831.5 Z"/></g>
<g><path style="opacity:1" fill="#76bde0" d="M 1371.5,912.5 C 1369.96,918.98 1368.3,925.313 1366.5,931.5C 1283.59,930.265 1200.59,930.598 1117.5,932.5C 1118.01,926.178 1118.35,919.845 1118.5,913.5C 1119.48,910.375 1119.81,907.042 1119.5,903.5C 1184.33,902.966 1249,902.966 1313.5,903.5C 1311.38,909.745 1308.71,915.745 1305.5,921.5C 1308.76,923.711 1311.92,926.045 1315,928.5C 1337.67,903.167 1360.33,877.833 1383,852.5C 1380.65,872.756 1376.82,892.756 1371.5,912.5 Z"/></g>
<g><path style="opacity:1" fill="#77bee1" d="M 601.5,933.5 C 515.169,934.272 428.836,934.605 342.5,934.5C 341.833,932.5 341.167,930.5 340.5,928.5C 338.782,921.245 337.449,913.911 336.5,906.5C 351.167,906.5 365.833,906.5 380.5,906.5C 384.712,910.522 389.212,914.189 394,917.5C 398.436,915.9 401.27,912.9 402.5,908.5C 468.493,906.591 534.826,905.591 601.5,905.5C 601.5,914.833 601.5,924.167 601.5,933.5 Z"/></g>
<g><path style="opacity:1" fill="#fbf69b" d="M 783.5,932.5 C 805.336,930.182 812.169,939.182 804,959.5C 794.219,970.433 784.886,970.1 776,958.5C 774.72,948.731 777.22,940.065 783.5,932.5 Z"/></g>
<g><path style="opacity:1" fill="#7fc2e2" d="M 1366.5,931.5 C 1365.12,937.256 1363.45,942.923 1361.5,948.5C 1279.52,949.202 1197.52,949.869 1115.5,950.5C 1116.24,944.51 1116.91,938.51 1117.5,932.5C 1200.59,930.598 1283.59,930.265 1366.5,931.5 Z"/></g>
<g><path style="opacity:1" fill="#7fc2e2" d="M 601.5,933.5 C 601.263,934.791 601.596,935.791 602.5,936.5C 602.833,942.5 603.167,948.5 603.5,954.5C 578.381,953.176 553.048,952.509 527.5,952.5C 467.501,953.024 407.501,953.357 347.5,953.5C 345.369,947.312 343.703,940.978 342.5,934.5C 428.836,934.605 515.169,934.272 601.5,933.5 Z"/></g>
<g><path style="opacity:1" fill="#fafafa" d="M 862.5,977.5 C 862.087,1003.83 861.754,1030.17 861.5,1056.5C 858.195,1057.81 855.862,1060.14 854.5,1063.5C 853.307,1063.03 852.64,1062.03 852.5,1060.5C 848.82,1044.37 845.153,1028.37 841.5,1012.5C 841.371,1010.78 841.038,1009.12 840.5,1007.5C 836.5,988.499 832.5,969.499 828.5,950.5C 833.727,945.779 839.393,941.612 845.5,938C 851.407,936.639 857.407,936.139 863.5,936.5C 863.831,945.192 863.498,953.859 862.5,962.5C 855.845,967.538 855.845,972.538 862.5,977.5 Z"/></g>
<g><path style="opacity:1" fill="#faf9f9" d="M 895.5,942.5 C 888.158,977.72 881.325,1013.05 875,1048.5C 874.261,1052.75 873.094,1056.75 871.5,1060.5C 870.564,1059.03 869.23,1058.03 867.5,1057.5C 867.597,1031.16 867.931,1004.83 868.5,978.5C 875.954,973.576 876.287,968.243 869.5,962.5C 868.502,954.193 868.169,945.86 868.5,937.5C 877.774,938.29 886.774,939.956 895.5,942.5 Z"/></g>
<g><path style="opacity:1" fill="#235e7c" d="M 1378.5,910.5 C 1372.62,936.591 1364.62,961.925 1354.5,986.5C 1352.38,986.325 1350.38,986.659 1348.5,987.5C 1349.17,985.167 1349.83,982.833 1350.5,980.5C 1354.94,970.196 1358.6,959.529 1361.5,948.5C 1363.45,942.923 1365.12,937.256 1366.5,931.5C 1368.3,925.313 1369.96,918.98 1371.5,912.5C 1373.83,911.833 1376.17,911.167 1378.5,910.5 Z"/></g>
<g><path style="opacity:1" fill="#86c5e4" d="M 603.5,954.5 C 603.998,959.152 604.331,963.819 604.5,968.5C 520.666,968.807 436.999,969.474 353.5,970.5C 351.129,965.059 349.129,959.392 347.5,953.5C 407.501,953.357 467.501,953.024 527.5,952.5C 553.048,952.509 578.381,953.176 603.5,954.5 Z"/></g>
<g><path style="opacity:1" fill="#393230" d="M 828.5,950.5 C 832.5,969.499 836.5,988.499 840.5,1007.5C 838.5,1003.5 835.5,1000.5 831.5,998.5C 832.124,998.083 832.457,997.416 832.5,996.5C 829.654,982.573 826.32,968.906 822.5,955.5C 824.475,953.863 826.475,952.196 828.5,950.5 Z"/></g>
<g><path style="opacity:1" fill="#245e7b" d="M 334.5,927.5 C 336.621,927.325 338.621,927.659 340.5,928.5C 341.167,930.5 341.833,932.5 342.5,934.5C 343.703,940.978 345.369,947.312 347.5,953.5C 349.129,959.392 351.129,965.059 353.5,970.5C 355.435,977.306 357.769,983.972 360.5,990.5C 358.5,990.5 356.5,990.5 354.5,990.5C 345.826,970.145 339.159,949.145 334.5,927.5 Z"/></g>
<g><path style="opacity:1" fill="#f6f199" d="M 822.5,955.5 C 826.32,968.906 829.654,982.573 832.5,996.5C 832.457,997.416 832.124,998.083 831.5,998.5C 828.647,997.047 825.647,995.881 822.5,995C 817.825,989.666 814.658,983.5 813,976.5C 811.814,967.537 814.981,960.537 822.5,955.5 Z"/></g>
<g><path style="opacity:1" fill="#8ac7e5" d="M 1361.5,948.5 C 1358.6,959.529 1354.94,970.196 1350.5,980.5C 1297.33,979.335 1244,979.168 1190.5,980C 1163.28,979.854 1136.28,980.688 1109.5,982.5C 1111.63,971.845 1113.63,961.179 1115.5,950.5C 1197.52,949.869 1279.52,949.202 1361.5,948.5 Z"/></g>
<g><path style="opacity:1" fill="#3a3433" d="M 862.5,977.5 C 864.379,978.341 866.379,978.675 868.5,978.5C 867.931,1004.83 867.597,1031.16 867.5,1057.5C 865.621,1056.66 863.621,1056.33 861.5,1056.5C 861.754,1030.17 862.087,1003.83 862.5,977.5 Z"/></g>
<g><path style="opacity:1" fill="#90cae6" d="M 604.5,968.5 C 606.489,977.433 608.156,986.433 609.5,995.5C 527.568,994.429 445.568,994.429 363.5,995.5C 362.263,994.035 361.263,992.368 360.5,990.5C 357.769,983.972 355.435,977.306 353.5,970.5C 436.999,969.474 520.666,968.807 604.5,968.5 Z"/></g>
<g><path style="opacity:1" fill="#96cde7" d="M 1350.5,980.5 C 1349.83,982.833 1349.17,985.167 1348.5,987.5C 1345.68,995.136 1342.35,1002.47 1338.5,1009.5C 1259.1,1009.81 1179.76,1010.48 1100.5,1011.5C 1103.66,1001.87 1106.66,992.202 1109.5,982.5C 1136.28,980.688 1163.28,979.854 1190.5,980C 1244,979.168 1297.33,979.335 1350.5,980.5 Z"/></g>
<g><path style="opacity:1" fill="#97cde8" d="M 609.5,995.5 C 611.163,1001.48 612.83,1007.48 614.5,1013.5C 608.077,1012.85 601.577,1012.52 595,1012.5C 520.669,1013.11 446.502,1013.77 372.5,1014.5C 368.712,1008.59 365.712,1002.26 363.5,995.5C 445.568,994.429 527.568,994.429 609.5,995.5 Z"/></g>
<g><path style="opacity:1" fill="#245873" d="M 608.5,903.5 C 606.532,942.288 610.866,980.288 621.5,1017.5C 620.448,1019.26 618.781,1019.92 616.5,1019.5C 615.637,1017.58 614.971,1015.58 614.5,1013.5C 612.83,1007.48 611.163,1001.48 609.5,995.5C 608.156,986.433 606.489,977.433 604.5,968.5C 604.331,963.819 603.998,959.152 603.5,954.5C 603.167,948.5 602.833,942.5 602.5,936.5C 602.5,926.167 602.5,915.833 602.5,905.5C 604.114,903.925 606.114,903.259 608.5,903.5 Z"/></g>
<g><path style="opacity:1" fill="#26556e" d="M 1113.5,908.5 C 1113.5,909.833 1113.5,911.167 1113.5,912.5C 1115.41,912.216 1117.08,912.549 1118.5,913.5C 1118.35,919.845 1118.01,926.178 1117.5,932.5C 1116.91,938.51 1116.24,944.51 1115.5,950.5C 1113.63,961.179 1111.63,971.845 1109.5,982.5C 1106.66,992.202 1103.66,1001.87 1100.5,1011.5C 1096.48,1021.22 1092.14,1030.89 1087.5,1040.5C 1086.49,1041.87 1085.49,1043.2 1084.5,1044.5C 1082.78,1043.98 1081.45,1042.98 1080.5,1041.5C 1101.59,999.589 1112.59,955.256 1113.5,908.5 Z"/></g>
<g><path style="opacity:1" fill="#a3d3ea" d="M 1338.5,1009.5 C 1334.82,1020.53 1329.82,1030.87 1323.5,1040.5C 1245.02,1040.47 1166.35,1040.47 1087.5,1040.5C 1092.14,1030.89 1096.48,1021.22 1100.5,1011.5C 1179.76,1010.48 1259.1,1009.81 1338.5,1009.5 Z"/></g>
<g><path style="opacity:1" fill="#a3d3ea" d="M 614.5,1013.5 C 614.971,1015.58 615.637,1017.58 616.5,1019.5C 619.108,1027.66 622.108,1035.66 625.5,1043.5C 546.827,1043.23 468.161,1043.56 389.5,1044.5C 382.824,1035.16 377.158,1025.16 372.5,1014.5C 446.502,1013.77 520.669,1013.11 595,1012.5C 601.577,1012.52 608.077,1012.85 614.5,1013.5 Z"/></g>
<g><path style="opacity:1" fill="#1e191a" d="M 861.5,1056.5 C 863.621,1056.33 865.621,1056.66 867.5,1057.5C 869.23,1058.03 870.564,1059.03 871.5,1060.5C 875.974,1067.43 874.641,1073.1 867.5,1077.5C 867.167,1077.5 866.833,1077.5 866.5,1077.5C 864.097,1077.55 861.764,1077.22 859.5,1076.5C 858.833,1076.5 858.167,1076.5 857.5,1076.5C 856.343,1074.86 855.176,1073.2 854,1071.5C 853.57,1068.81 853.737,1066.14 854.5,1063.5C 855.862,1060.14 858.195,1057.81 861.5,1056.5 Z"/></g>
<g><path style="opacity:1" fill="#afd9ed" d="M 1323.5,1040.5 C 1317.84,1052.5 1311.17,1063.83 1303.5,1074.5C 1290.68,1073.17 1277.52,1072.5 1264,1072.5C 1198.5,1073.33 1133,1073.67 1067.5,1073.5C 1073.93,1064.3 1079.6,1054.63 1084.5,1044.5C 1085.49,1043.2 1086.49,1041.87 1087.5,1040.5C 1166.35,1040.47 1245.02,1040.47 1323.5,1040.5 Z"/></g>
<g><path style="opacity:1" fill="#afd9ed" d="M 625.5,1043.5 C 630.67,1054.51 636.337,1065.18 642.5,1075.5C 565.664,1075.68 488.998,1076.35 412.5,1077.5C 403.672,1067.33 396.005,1056.33 389.5,1044.5C 468.161,1043.56 546.827,1043.23 625.5,1043.5 Z"/></g>
<g><path style="opacity:1" fill="#294e61" d="M 1354.5,986.5 C 1341.85,1022.47 1324.52,1055.81 1302.5,1086.5C 1300.17,1086.5 1297.83,1086.5 1295.5,1086.5C 1298.56,1082.77 1301.23,1078.77 1303.5,1074.5C 1311.17,1063.83 1317.84,1052.5 1323.5,1040.5C 1329.82,1030.87 1334.82,1020.53 1338.5,1009.5C 1342.35,1002.47 1345.68,995.136 1348.5,987.5C 1350.38,986.659 1352.38,986.325 1354.5,986.5 Z"/></g>
<g><path style="opacity:1" fill="#294d60" d="M 354.5,990.5 C 356.5,990.5 358.5,990.5 360.5,990.5C 361.263,992.368 362.263,994.035 363.5,995.5C 365.712,1002.26 368.712,1008.59 372.5,1014.5C 377.158,1025.16 382.824,1035.16 389.5,1044.5C 396.005,1056.33 403.672,1067.33 412.5,1077.5C 419.792,1086.79 427.458,1095.79 435.5,1104.5C 432.833,1104.5 430.167,1104.5 427.5,1104.5C 396.644,1070.82 372.311,1032.82 354.5,990.5 Z"/></g>
<g><path style="opacity:1" fill="#fafafa" d="M 857.5,1076.5 C 858.167,1076.5 858.833,1076.5 859.5,1076.5C 860.649,1091.09 860.815,1105.76 860,1120.5C 823.703,1134.49 786.869,1136.16 749.5,1125.5C 756.137,1112.62 759.804,1098.95 760.5,1084.5C 767.419,1088.87 774.752,1092.7 782.5,1096C 789.351,1098.24 796.351,1098.91 803.5,1098C 823.16,1094.84 841.16,1087.67 857.5,1076.5 Z"/></g>
<g><path style="opacity:1" fill="#fbfbfb" d="M 866.5,1077.5 C 866.833,1077.5 867.167,1077.5 867.5,1077.5C 877.094,1082.46 887.094,1086.62 897.5,1090C 919.428,1095.79 940.428,1093.29 960.5,1082.5C 963.346,1097.04 968.012,1111.04 974.5,1124.5C 938.263,1131.99 902.263,1130.99 866.5,1121.5C 866.5,1106.83 866.5,1092.17 866.5,1077.5 Z"/></g>
<g><path style="opacity:1" fill="#bcdeef" d="M 1303.5,1074.5 C 1301.23,1078.77 1298.56,1082.77 1295.5,1086.5C 1291.54,1092.76 1286.87,1098.43 1281.5,1103.5C 1201.49,1103.23 1121.49,1103.57 1041.5,1104.5C 1050.89,1094.68 1059.56,1084.35 1067.5,1073.5C 1133,1073.67 1198.5,1073.33 1264,1072.5C 1277.52,1072.5 1290.68,1073.17 1303.5,1074.5 Z"/></g>
<g><path style="opacity:1" fill="#bcdeef" d="M 642.5,1075.5 C 650.09,1085.76 658.09,1095.76 666.5,1105.5C 590.334,1105.95 514.334,1106.62 438.5,1107.5C 437.728,1106.31 436.728,1105.31 435.5,1104.5C 427.458,1095.79 419.792,1086.79 412.5,1077.5C 488.998,1076.35 565.664,1075.68 642.5,1075.5 Z"/></g>
<g><path style="opacity:1" fill="#2a4a5b" d="M 621.5,1017.5 C 633.545,1052.27 652.211,1082.93 677.5,1109.5C 675.833,1110.17 674.167,1110.83 672.5,1111.5C 670.139,1109.81 668.139,1107.81 666.5,1105.5C 658.09,1095.76 650.09,1085.76 642.5,1075.5C 636.337,1065.18 630.67,1054.51 625.5,1043.5C 622.108,1035.66 619.108,1027.66 616.5,1019.5C 618.781,1019.92 620.448,1019.26 621.5,1017.5 Z"/></g>
<g><path style="opacity:1" fill="#2c4755" d="M 1080.5,1041.5 C 1081.45,1042.98 1082.78,1043.98 1084.5,1044.5C 1079.6,1054.63 1073.93,1064.3 1067.5,1073.5C 1059.56,1084.35 1050.89,1094.68 1041.5,1104.5C 1031.36,1114.73 1021.03,1124.73 1010.5,1134.5C 1008.59,1135.08 1006.92,1136.08 1005.5,1137.5C 1003.5,1136.83 1001.5,1136.17 999.5,1135.5C 1032.6,1109.22 1059.6,1077.88 1080.5,1041.5 Z"/></g>
<g><path style="opacity:1" fill="#c8e4f2" d="M 1281.5,1103.5 C 1273.64,1115.03 1264.31,1125.37 1253.5,1134.5C 1172.67,1133.73 1091.67,1133.73 1010.5,1134.5C 1021.03,1124.73 1031.36,1114.73 1041.5,1104.5C 1121.49,1103.57 1201.49,1103.23 1281.5,1103.5 Z"/></g>
<g><path style="opacity:1" fill="#c8e4f2" d="M 666.5,1105.5 C 668.139,1107.81 670.139,1109.81 672.5,1111.5C 680.258,1120.19 688.591,1128.19 697.5,1135.5C 621.669,1136.07 546.002,1136.74 470.5,1137.5C 459.506,1127.84 448.839,1117.84 438.5,1107.5C 514.334,1106.62 590.334,1105.95 666.5,1105.5 Z"/></g>
<g><path style="opacity:1" fill="#fbfbfb" d="M 856.5,1127.5 C 857.833,1127.5 859.167,1127.5 860.5,1127.5C 860.666,1134.51 860.5,1141.51 860,1148.5C 846.654,1155.5 832.487,1160.34 817.5,1163C 798.954,1166.18 780.287,1167.85 761.5,1168C 752.309,1160.64 742.976,1153.48 733.5,1146.5C 738.036,1142.13 742.036,1137.3 745.5,1132C 758.96,1134.83 772.627,1136.83 786.5,1138C 794.833,1138.67 803.167,1138.67 811.5,1138C 821.167,1136.33 830.833,1134.67 840.5,1133C 846.215,1131.96 851.548,1130.13 856.5,1127.5 Z"/></g>
<g><path style="opacity:1" fill="#8f8b8b" d="M 867.5,1127.5 C 866.509,1134.31 866.175,1141.31 866.5,1148.5C 865.181,1141.32 865.181,1133.99 866.5,1126.5C 867.107,1126.62 867.44,1126.96 867.5,1127.5 Z"/></g>
<g><path style="opacity:1" fill="#fbfbfb" d="M 867.5,1127.5 C 903.224,1136.98 939.224,1137.98 975.5,1130.5C 976.5,1130.67 977.5,1130.83 978.5,1131C 980.257,1133.85 982.257,1136.51 984.5,1139C 971.452,1149.72 958.119,1160.05 944.5,1170C 916.744,1169.02 890.744,1161.86 866.5,1148.5C 866.175,1141.31 866.509,1134.31 867.5,1127.5 Z"/></g>
<g><path style="opacity:1" fill="#d5eaf5" d="M 1253.5,1134.5 C 1242.8,1145.67 1231.14,1155.67 1218.5,1164.5C 1136.34,1164.4 1054.01,1164.4 971.5,1164.5C 982.833,1155.5 994.167,1146.5 1005.5,1137.5C 1006.92,1136.08 1008.59,1135.08 1010.5,1134.5C 1091.67,1133.73 1172.67,1133.73 1253.5,1134.5 Z"/></g>
<g><path style="opacity:1" fill="#d4eaf5" d="M 697.5,1135.5 C 711.19,1145.53 724.857,1155.53 738.5,1165.5C 662.02,1166.15 585.687,1166.82 509.5,1167.5C 495.906,1158.23 482.906,1148.23 470.5,1137.5C 546.002,1136.74 621.669,1136.07 697.5,1135.5 Z"/></g>
<g><path style="opacity:1" fill="#fdf89d" d="M 861.5,1154.5 C 873.408,1159.08 885.408,1163.58 897.5,1168C 910.017,1171.62 922.684,1174.62 935.5,1177C 921.795,1187.86 908.462,1199.19 895.5,1211C 882.934,1223.57 870.434,1236.07 858,1248.5C 829.097,1222.93 799.597,1198.1 769.5,1174C 793.154,1172.91 816.488,1169.57 839.5,1164C 847.273,1161.61 854.606,1158.44 861.5,1154.5 Z"/></g>
<g><path style="opacity:1" fill="#2f404a" d="M 1295.5,1086.5 C 1297.83,1086.5 1300.17,1086.5 1302.5,1086.5C 1277.83,1121.17 1248.17,1150.83 1213.5,1175.5C 1210.5,1175.5 1207.5,1175.5 1204.5,1175.5C 1209.17,1171.83 1213.83,1168.17 1218.5,1164.5C 1231.14,1155.67 1242.8,1145.67 1253.5,1134.5C 1264.31,1125.37 1273.64,1115.03 1281.5,1103.5C 1286.87,1098.43 1291.54,1092.76 1295.5,1086.5 Z"/></g>
<g><path style="opacity:1" fill="#2f3f48" d="M 427.5,1104.5 C 430.167,1104.5 432.833,1104.5 435.5,1104.5C 436.728,1105.31 437.728,1106.31 438.5,1107.5C 448.839,1117.84 459.506,1127.84 470.5,1137.5C 482.906,1148.23 495.906,1158.23 509.5,1167.5C 517.167,1172.83 524.833,1178.17 532.5,1183.5C 528.818,1183.67 525.152,1183.5 521.5,1183C 487.054,1160.73 455.72,1134.57 427.5,1104.5 Z"/></g>
<g><path style="opacity:1" fill="#393230" d="M 1384.5,1165.5 C 1387.22,1166.7 1388.39,1168.7 1388,1171.5C 1332.59,1250.28 1270.43,1323.78 1201.5,1392C 1183.27,1409.1 1163.93,1424.77 1143.5,1439C 1135.96,1443.27 1128.29,1447.27 1120.5,1451C 1111.16,1454.8 1101.5,1456.13 1091.5,1455C 1085.19,1452.37 1079.69,1448.53 1075,1443.5C 1064.61,1431.29 1054.45,1418.95 1044.5,1406.5C 983.056,1424.71 920.223,1433.38 856,1432.5C 795.656,1433 736.49,1425 678.5,1408.5C 676.617,1408.88 675.117,1409.88 674,1411.5C 661.959,1427.88 648.792,1443.38 634.5,1458C 623.054,1463.64 611.387,1463.98 599.5,1459C 581.524,1450.68 564.858,1440.35 549.5,1428C 502.564,1387.4 459.397,1343.23 420,1295.5C 387.563,1257.28 357.063,1217.61 328.5,1176.5C 329.865,1175.06 331.365,1173.73 333,1172.5C 368.923,1202.43 405.423,1231.59 442.5,1260C 470.376,1280.35 499.709,1298.51 530.5,1314.5C 530.833,1314.33 531.167,1314.17 531.5,1314C 504.318,1274.47 478.318,1234.14 453.5,1193C 455,1191.5 456.5,1190 458,1188.5C 500.382,1222.27 543.215,1255.44 586.5,1288C 587.635,1288.75 588.635,1288.58 589.5,1287.5C 590.954,1283.56 593.12,1280.23 596,1277.5C 707.458,1340.04 825.958,1358.54 951.5,1333C 1008.4,1321.81 1062.23,1302.31 1113,1274.5C 1115.25,1279.33 1117.75,1283.99 1120.5,1288.5C 1167.71,1253.79 1214.21,1218.12 1260,1181.5C 1261.17,1183.33 1262.67,1184.83 1264.5,1186C 1239.79,1226.6 1213.95,1266.43 1187,1305.5C 1186.31,1306.33 1186.48,1307 1187.5,1307.5C 1219.68,1290.59 1250.35,1271.42 1279.5,1250C 1315.3,1222.77 1350.3,1194.61 1384.5,1165.5 Z"/></g>
<g><path style="opacity:1" fill="#e1f0f7" d="M 1218.5,1164.5 C 1213.83,1168.17 1209.17,1171.83 1204.5,1175.5C 1192.66,1183.59 1180.33,1190.92 1167.5,1197.5C 1088.34,1197.22 1009,1197.22 929.5,1197.5C 943.098,1186.03 957.098,1175.03 971.5,1164.5C 1054.01,1164.4 1136.34,1164.4 1218.5,1164.5 Z"/></g>
<g><path style="opacity:1" fill="#303c44" d="M 677.5,1109.5 C 686.666,1117.83 695.999,1126 705.5,1134C 735.496,1154.82 764.496,1176.99 792.5,1200.5C 793.386,1201.32 793.719,1202.32 793.5,1203.5C 791.585,1203.22 789.919,1203.55 788.5,1204.5C 786.116,1202.12 783.45,1200.12 780.5,1198.5C 767.098,1186.77 753.098,1175.77 738.5,1165.5C 724.857,1155.53 711.19,1145.53 697.5,1135.5C 688.591,1128.19 680.258,1120.19 672.5,1111.5C 674.167,1110.83 675.833,1110.17 677.5,1109.5 Z"/></g>
<g><path style="opacity:1" fill="#e1f0f7" d="M 738.5,1165.5 C 753.098,1175.77 767.098,1186.77 780.5,1198.5C 708.327,1198.23 636.327,1198.9 564.5,1200.5C 553.833,1194.83 543.167,1189.17 532.5,1183.5C 524.833,1178.17 517.167,1172.83 509.5,1167.5C 585.687,1166.82 662.02,1166.15 738.5,1165.5 Z"/></g>
<g><path style="opacity:1" fill="#fcfcfc" d="M 1370.5,1184.5 C 1371.53,1184.9 1371.69,1185.56 1371,1186.5C 1331.98,1239.2 1290.31,1289.87 1246,1338.5C 1215.29,1371.89 1182.12,1402.39 1146.5,1430C 1134.63,1437.94 1121.96,1444.27 1108.5,1449C 1102.83,1449.67 1097.17,1449.67 1091.5,1449C 1085.41,1444.91 1079.91,1440.08 1075,1434.5C 1067.17,1424.67 1059.33,1414.83 1051.5,1405C 1087.12,1394.02 1119.79,1377.52 1149.5,1355.5C 1150.64,1353.58 1150.81,1351.58 1150,1349.5C 1141.53,1331.75 1132.86,1314.08 1124,1296.5C 1123.33,1295.5 1123.33,1294.5 1124,1293.5C 1166.91,1261.56 1209.41,1229.39 1251.5,1197C 1226.33,1236.34 1200.66,1275.34 1174.5,1314C 1176.02,1315.35 1177.35,1316.85 1178.5,1318.5C 1225.9,1294.56 1270.23,1266.06 1311.5,1233C 1331.61,1217.29 1351.27,1201.13 1370.5,1184.5 Z"/></g>
<g><path style="opacity:1" fill="#fcfcfc" d="M 346.5,1191.5 C 381.412,1220.29 417.079,1248.12 453.5,1275C 480.431,1293.73 508.764,1310.23 538.5,1324.5C 540.556,1323.95 542.223,1322.79 543.5,1321C 517.047,1282.54 491.381,1243.54 466.5,1204C 505.901,1234.2 545.568,1264.36 585.5,1294.5C 577.133,1309.04 568.966,1323.71 561,1338.5C 560.333,1340.17 560.333,1341.83 561,1343.5C 592.882,1372.63 629.715,1393.47 671.5,1406C 659.115,1422.41 645.782,1438.08 631.5,1453C 624.533,1456.33 617.2,1457.33 609.5,1456C 590.124,1448.94 572.457,1438.94 556.5,1426C 526.13,1400.97 497.63,1373.8 471,1344.5C 426.235,1295.93 384.735,1244.93 346.5,1191.5 Z"/></g>
<g><path style="opacity:1" fill="#32393e" d="M 999.5,1135.5 C 1001.5,1136.17 1003.5,1136.83 1005.5,1137.5C 994.167,1146.5 982.833,1155.5 971.5,1164.5C 957.098,1175.03 943.098,1186.03 929.5,1197.5C 917.542,1207.12 906.209,1217.46 895.5,1228.5C 892.5,1231.17 889.5,1233.83 886.5,1236.5C 884.708,1235.69 882.708,1235.19 880.5,1235C 898.614,1215.95 917.947,1198.29 938.5,1182C 958.863,1166.49 979.197,1150.99 999.5,1135.5 Z"/></g>
<g><path style="opacity:1" fill="#edf6fa" d="M 1167.5,1197.5 C 1144.9,1209.46 1121.57,1219.8 1097.5,1228.5C 1030.33,1227.3 962.998,1227.3 895.5,1228.5C 906.209,1217.46 917.542,1207.12 929.5,1197.5C 1009,1197.22 1088.34,1197.22 1167.5,1197.5 Z"/></g>
<g><path style="opacity:1" fill="#edf6fa" d="M 780.5,1198.5 C 783.45,1200.12 786.116,1202.12 788.5,1204.5C 797.833,1212.5 807.167,1220.5 816.5,1228.5C 754.66,1228.26 692.993,1228.93 631.5,1230.5C 608.281,1222.39 585.948,1212.39 564.5,1200.5C 636.327,1198.9 708.327,1198.23 780.5,1198.5 Z"/></g>
<g><path style="opacity:1" fill="#343639" d="M 1204.5,1175.5 C 1207.5,1175.5 1210.5,1175.5 1213.5,1175.5C 1178.13,1201.02 1139.46,1220.52 1097.5,1234C 1091.84,1234.5 1086.18,1234.67 1080.5,1234.5C 1085.94,1232.13 1091.61,1230.13 1097.5,1228.5C 1121.57,1219.8 1144.9,1209.46 1167.5,1197.5C 1180.33,1190.92 1192.66,1183.59 1204.5,1175.5 Z"/></g>
<g><path style="opacity:1" fill="#f9fbfc" d="M 1097.5,1228.5 C 1091.61,1230.13 1085.94,1232.13 1080.5,1234.5C 1025.98,1251.1 970.317,1262.27 913.5,1268C 890.962,1270.93 872.629,1281.09 858.5,1298.5C 835.846,1282.02 810.513,1271.85 782.5,1268C 730.518,1261.59 680.184,1249.09 631.5,1230.5C 692.993,1228.93 754.66,1228.26 816.5,1228.5C 828.962,1239.12 841.295,1249.96 853.5,1261C 856.833,1261.67 860.167,1261.67 863.5,1261C 871.005,1252.66 878.672,1244.5 886.5,1236.5C 889.5,1233.83 892.5,1231.17 895.5,1228.5C 962.998,1227.3 1030.33,1227.3 1097.5,1228.5 Z"/></g>
<g><path style="opacity:1" fill="#fbfafa" d="M 1108.5,1283.5 C 1109.68,1283.28 1110.68,1283.61 1111.5,1284.5C 1122.77,1306.71 1133.77,1329.04 1144.5,1351.5C 1120.37,1370.06 1093.7,1384.23 1064.5,1394C 983.646,1420.95 900.646,1431.61 815.5,1426C 752.295,1423.36 691.629,1409.7 633.5,1385C 608.724,1373.63 586.391,1358.79 566.5,1340.5C 576.507,1321.81 587.007,1303.48 598,1285.5C 697.292,1339.78 803.126,1359.61 915.5,1345C 972.701,1336.95 1027.7,1321.28 1080.5,1298C 1090.05,1293.39 1099.38,1288.56 1108.5,1283.5 Z"/></g>
<g><path style="opacity:1" fill="#362f2e" d="M 1028.5,1338.5 C 1045.47,1335.9 1055.97,1342.9 1060,1359.5C 1062.73,1378.77 1054.39,1389.11 1035,1390.5C 1026.67,1390.84 1020.34,1387.5 1016,1380.5C 1010.15,1370.92 1009.15,1360.92 1013,1350.5C 1016.66,1344.43 1021.83,1340.43 1028.5,1338.5 Z"/></g>
<g><path style="opacity:1" fill="#37302f" d="M 678.5,1339.5 C 681.923,1340.36 685.256,1341.53 688.5,1343C 684.474,1354.74 680.641,1366.58 677,1378.5C 674.114,1384.54 669.281,1387.54 662.5,1387.5C 649.63,1386.29 644.297,1379.29 646.5,1366.5C 649.807,1367.05 653.14,1367.38 656.5,1367.5C 656.216,1370.78 656.549,1373.94 657.5,1377C 660.665,1379.13 663.665,1378.96 666.5,1376.5C 670.904,1364.29 674.904,1351.96 678.5,1339.5 Z"/></g>
<g><path style="opacity:1" fill="#37302f" d="M 694.5,1344.5 C 706.875,1347.29 719.209,1350.29 731.5,1353.5C 730.833,1355.5 730.167,1357.5 729.5,1359.5C 728.5,1359.83 727.5,1360.17 726.5,1360.5C 718.488,1358.83 710.488,1357.16 702.5,1355.5C 701.674,1359.14 701.008,1362.8 700.5,1366.5C 708.234,1367.84 715.9,1369.51 723.5,1371.5C 724.449,1374.13 724.449,1376.79 723.5,1379.5C 715.423,1378.25 707.423,1376.59 699.5,1374.5C 697.289,1378.87 695.956,1383.54 695.5,1388.5C 704.22,1390.01 712.887,1391.85 721.5,1394C 722.291,1396.75 722.291,1399.58 721.5,1402.5C 709.189,1399.73 696.856,1397.06 684.5,1394.5C 687.618,1377.79 690.951,1361.13 694.5,1344.5 Z"/></g>
<g><path style="opacity:1" fill="#36302f" d="M 1003.5,1346.5 C 1004.82,1346.33 1005.99,1346.66 1007,1347.5C 1007.5,1350.15 1007.66,1352.81 1007.5,1355.5C 1002.77,1355.78 998.107,1356.45 993.5,1357.5C 996.293,1371.46 998.959,1385.46 1001.5,1399.5C 998.167,1399.83 994.833,1400.17 991.5,1400.5C 988.795,1387.23 986.462,1373.9 984.5,1360.5C 979.077,1360.52 973.744,1361.19 968.5,1362.5C 968.489,1360.45 968.156,1358.45 967.5,1356.5C 967.818,1355.35 968.484,1354.52 969.5,1354C 981.061,1351.92 992.394,1349.42 1003.5,1346.5 Z"/></g>
<g><path style="opacity:1" fill="#f9f9f9" d="M 1029.5,1347.5 C 1039.58,1345.79 1046.08,1349.79 1049,1359.5C 1052.27,1367.86 1050.44,1374.69 1043.5,1380C 1034.98,1383.62 1028.48,1381.46 1024,1373.5C 1023.2,1370.76 1022.2,1368.09 1021,1365.5C 1019.3,1357.24 1022.13,1351.24 1029.5,1347.5 Z"/></g>
<g><path style="opacity:1" fill="#37302f" d="M 737.5,1354.5 C 741.1,1354.79 744.6,1355.46 748,1356.5C 752.742,1368.31 757.742,1379.98 763,1391.5C 764.455,1380.48 765.955,1369.48 767.5,1358.5C 770.786,1359.21 774.119,1359.54 777.5,1359.5C 774.706,1376.14 772.039,1392.81 769.5,1409.5C 766.223,1409.78 763.057,1409.45 760,1408.5C 754.828,1396.82 749.662,1385.16 744.5,1373.5C 742.088,1384.05 740.421,1394.72 739.5,1405.5C 736.455,1405.49 733.455,1405.16 730.5,1404.5C 732.182,1387.71 734.515,1371.04 737.5,1354.5 Z"/></g>
<g><path style="opacity:1" fill="#37302f" d="M 956.5,1355.5 C 958.833,1355.5 961.167,1355.5 963.5,1355.5C 965.629,1372.15 967.629,1388.82 969.5,1405.5C 966.134,1405.79 962.8,1405.95 959.5,1406C 951.289,1396.79 943.456,1387.29 936,1377.5C 936.67,1388.19 937.836,1398.86 939.5,1409.5C 936.214,1410.21 932.881,1410.54 929.5,1410.5C 927.582,1394.15 925.582,1377.82 923.5,1361.5C 926.549,1359.53 929.882,1359.03 933.5,1360C 942.024,1369.56 950.191,1379.39 958,1389.5C 956.934,1379.71 955.767,1369.87 954.5,1360C 954.759,1358.21 955.425,1356.71 956.5,1355.5 Z"/></g>
<g><path style="opacity:1" fill="#383130" d="M 819.5,1409.5 C 818.566,1410.57 818.232,1411.9 818.5,1413.5C 816.167,1413.5 813.833,1413.5 811.5,1413.5C 801.178,1412.67 790.845,1412 780.5,1411.5C 781.999,1394.51 783.332,1377.51 784.5,1360.5C 796.799,1361.89 809.132,1362.89 821.5,1363.5C 821.5,1366.17 821.5,1368.83 821.5,1371.5C 812.156,1371.4 802.823,1371.07 793.5,1370.5C 793.5,1374.17 793.5,1377.83 793.5,1381.5C 801.809,1382.29 810.142,1382.62 818.5,1382.5C 818.5,1385.5 818.5,1388.5 818.5,1391.5C 809.833,1391.17 801.167,1390.83 792.5,1390.5C 791.8,1394.8 791.467,1399.13 791.5,1403.5C 800.824,1404.28 810.158,1404.94 819.5,1405.5C 819.5,1406.83 819.5,1408.17 819.5,1409.5 Z"/></g>
<g><path style="opacity:1" fill="#37302f" d="M 889.5,1361.5 C 912.382,1361.22 922.549,1372.56 920,1395.5C 914.204,1411.15 903.037,1416.99 886.5,1413C 878.202,1409.58 873.369,1403.41 872,1394.5C 868.45,1378.26 874.283,1367.26 889.5,1361.5 Z"/></g>
<g><path style="opacity:1" fill="#36302f" d="M 838.5,1395.5 C 837.51,1401.31 837.177,1407.31 837.5,1413.5C 834.5,1413.5 831.5,1413.5 828.5,1413.5C 828.5,1408.17 828.5,1402.83 828.5,1397.5C 828.5,1386.17 828.5,1374.83 828.5,1363.5C 838.233,1363.11 847.9,1363.61 857.5,1365C 866.82,1369.49 869.654,1376.66 866,1386.5C 863.578,1391.26 859.745,1394.09 854.5,1395C 849.177,1395.5 843.844,1395.67 838.5,1395.5 Z"/></g>
<g><path style="opacity:1" fill="#fafafa" d="M 890.5,1370.5 C 906.415,1370.61 912.581,1378.61 909,1394.5C 906.482,1403.33 900.648,1406.83 891.5,1405C 886.01,1402.2 882.844,1397.7 882,1391.5C 879.704,1382.18 882.537,1375.18 890.5,1370.5 Z"/></g>
<g><path style="opacity:1" fill="#f9f9f9" d="M 838.5,1372.5 C 842.846,1372.33 847.179,1372.5 851.5,1373C 856.623,1375.51 857.789,1379.34 855,1384.5C 854.25,1385.13 853.416,1385.63 852.5,1386C 847.845,1386.5 843.179,1386.67 838.5,1386.5C 838.5,1381.83 838.5,1377.17 838.5,1372.5 Z"/></g>
<g><path style="opacity:1" fill="#787372" d="M 838.5,1395.5 C 838.5,1401.83 838.5,1408.17 838.5,1414.5C 834.833,1414.5 831.167,1414.5 827.5,1414.5C 827.178,1408.64 827.511,1402.98 828.5,1397.5C 828.5,1402.83 828.5,1408.17 828.5,1413.5C 831.5,1413.5 834.5,1413.5 837.5,1413.5C 837.177,1407.31 837.51,1401.31 838.5,1395.5 Z"/></g>
<g><path style="opacity:1" fill="#989494" d="M 819.5,1409.5 C 819.5,1411.17 819.5,1412.83 819.5,1414.5C 816.615,1414.81 813.948,1414.47 811.5,1413.5C 813.948,1414.47 816.615,1414.81 819.5,1414.5C 819.5,1412.83 819.5,1411.17 819.5,1409.5 Z"/></g>
<g><path style="opacity:1" fill="#332c2b" d="M 770.5,1478.5 C 774.167,1478.5 777.833,1478.5 781.5,1478.5C 781.5,1502.83 781.5,1527.17 781.5,1551.5C 777.167,1551.5 772.833,1551.5 768.5,1551.5C 768.833,1534.15 768.5,1516.82 767.5,1499.5C 762.503,1503.85 756.837,1506.85 750.5,1508.5C 750.176,1504.45 750.509,1500.45 751.5,1496.5C 760.298,1492.96 766.631,1486.96 770.5,1478.5 Z"/></g>
<g><path style="opacity:1" fill="#8d875e" d="M 770.5,1478.5 C 774.298,1477.52 778.298,1477.18 782.5,1477.5C 782.831,1502.34 782.498,1527.01 781.5,1551.5C 781.5,1527.17 781.5,1502.83 781.5,1478.5C 777.833,1478.5 774.167,1478.5 770.5,1478.5 Z"/></g>
<g><path style="opacity:1" fill="#362f2c" d="M 816.5,1478.5 C 835.729,1476.55 846.562,1485.22 849,1504.5C 851.317,1519.25 848.65,1532.91 841,1545.5C 832.124,1552.98 822.29,1554.48 811.5,1550C 806.579,1545.99 803.912,1540.82 803.5,1534.5C 807.824,1534.07 812.158,1533.74 816.5,1533.5C 817.118,1539.62 820.452,1542.12 826.5,1541C 831.976,1537.62 834.643,1532.62 834.5,1526C 834.167,1524.83 833.833,1523.67 833.5,1522.5C 820.862,1529.98 811.029,1527.31 804,1514.5C 797.975,1498.73 802.142,1486.73 816.5,1478.5 Z"/></g>
<g><path style="opacity:1" fill="#352e2c" d="M 876.5,1478.5 C 883.877,1477.69 890.877,1478.86 897.5,1482C 901.843,1485.85 904.176,1490.69 904.5,1496.5C 900.131,1496.47 895.798,1496.8 891.5,1497.5C 890.608,1491.05 886.941,1488.55 880.5,1490C 878,1491.17 876.167,1493 875,1495.5C 873.038,1500.01 872.371,1504.67 873,1509.5C 879.036,1504.28 885.869,1503.11 893.5,1506C 899.492,1508.66 903.325,1513.16 905,1519.5C 908.798,1542.36 899.298,1553.19 876.5,1552C 865.07,1547 859.237,1538.17 859,1525.5C 858.333,1517.83 858.333,1510.17 859,1502.5C 860.714,1491.37 866.547,1483.37 876.5,1478.5 Z"/></g>
<g><path style="opacity:1" fill="#362f2d" d="M 929.5,1478.5 C 947.434,1476.56 957.601,1484.56 960,1502.5C 962.194,1517.17 960.194,1531.17 954,1544.5C 946.186,1552.9 937.02,1554.73 926.5,1550C 921.422,1546.36 917.922,1541.53 916,1535.5C 914.468,1523.54 914.135,1511.54 915,1499.5C 916.404,1489.99 921.238,1482.99 929.5,1478.5 Z"/></g>
<g><path style="opacity:1" fill="#f8f39a" d="M 820.5,1489.5 C 826.843,1488.76 831.01,1491.42 833,1497.5C 833.826,1502.59 833.492,1507.59 832,1512.5C 824.068,1518.89 818.402,1517.23 815,1507.5C 813.14,1500.26 814.973,1494.26 820.5,1489.5 Z"/></g>
<g><path style="opacity:1" fill="#faf59b" d="M 934.5,1489.5 C 940.447,1488.95 943.947,1491.61 945,1497.5C 945.667,1508.83 945.667,1520.17 945,1531.5C 944.651,1536.56 942.151,1539.9 937.5,1541.5C 932.589,1540.05 929.756,1536.72 929,1531.5C 928.333,1520.83 928.333,1510.17 929,1499.5C 929.543,1495.41 931.377,1492.08 934.5,1489.5 Z"/></g>
<g><path style="opacity:1" fill="#faf59b" d="M 879.5,1514.5 C 885.695,1513.34 889.861,1515.68 892,1521.5C 893.037,1527.39 892.371,1533.06 890,1538.5C 883.581,1542.16 878.581,1540.83 875,1534.5C 871.843,1526.56 873.343,1519.89 879.5,1514.5 Z"/></g>
</svg>
